<?xml version="1.0" standalone="no"?>
<!DOCTYPE svg PUBLIC "-//W3C//DTD SVG 1.1//EN" "http://www.w3.org/Graphics/SVG/1.1/DTD/svg11.dtd" >
<svg xmlns="http://www.w3.org/2000/svg" xmlns:xlink="http://www.w3.org/1999/xlink" version="1.1">
<metadata>
Created by FontForge 20190801 at Wed Nov  5 17:00:30 2014
 By Jimmy Wärting
Copyright (c) 2014 Monotype ITC Inc. All rights reserved.
</metadata>
<defs>
<font id="FranklinGothicLTPro-DmCm" horiz-adv-x="409" >
  <font-face 
    font-family="ITCFranklinGothic LT Pro BkCm"
    font-weight="600"
    font-stretch="condensed"
    units-per-em="1000"
    panose-1="2 11 7 8 3 5 2 2 2 4"
    ascent="686"
    descent="-314"
    x-height="493"
    cap-height="667"
    bbox="-104 -250 795 881"
    underline-thickness="50"
    underline-position="-125"
    stemh="106"
    stemv="128"
    unicode-range="U+000D-FB02"
  />
<missing-glyph horiz-adv-x="500" 
d="M0 700h500v-700h-500v700zM80 650l170 -255l170 255h-340zM50 605v-510l170 255zM450 95v510l-170 -255zM420 50l-170 255l-170 -255h340z" />
    <glyph glyph-name="IJ" unicode="IJ" horiz-adv-x="539" 
d="M51 667h137v-667h-137v667zM357 667h137v-477c0 -143 -48 -200 -161 -200c-27 0 -54 4 -81 12v119c28 -3 36 -4 47 -4c49 0 58 24 58 96v454z" />
    <glyph glyph-name="ij" unicode="ij" horiz-adv-x="404" 
d="M38 673h128v-136h-128v136zM38 493h128v-493h-128v493zM238 673h128v-136h-128v136zM238 493h128v-498c0 -113 -9 -173 -129 -173c-19 0 -35 1 -56 3v104c8 -1 16 -1 19 -1c33 0 38 20 38 68v497z" />
    <glyph glyph-name="napostrophe" unicode="&#x22;n" horiz-adv-x="464" 
d="M68 463h-57l20 205h88c-23 -92 -38 -146 -51 -205zM429 0h-128v341c0 47 -12 57 -39 57s-41 -14 -41 -59v-339h-128v493h114v-73c25 60 58 83 111 83c73 0 111 -33 111 -138v-365z" />
    <glyph glyph-name="fi" unicode="fi" horiz-adv-x="443" 
d="M193 693c19 0 32 -2 49 -6v-106c-7 1 -13 2 -20 2c-25 0 -39 -9 -39 -56v-34h58v-100h-58v-393h-128v393h-53v100h53v18c0 135 49 182 138 182zM277 673h128v-136h-128v136zM277 493h128v-493h-128v493z" />
    <glyph glyph-name="fl" unicode="fl" horiz-adv-x="443" 
d="M193 693c19 0 32 -2 49 -6v-106c-7 1 -13 2 -20 2c-25 0 -39 -11 -39 -51v-39h58v-100h-58v-393h-128v393h-53v100h53v18c0 135 49 182 138 182zM277 667h128v-667h-128v667z" />
    <glyph glyph-name=".notdef" horiz-adv-x="500" 
d="M0 700h500v-700h-500v700zM80 650l170 -255l170 255h-340zM50 605v-510l170 255zM450 95v510l-170 -255zM420 50l-170 255l-170 -255h340z" />
    <glyph glyph-name="NULL" horiz-adv-x="0" 
 />
    <glyph glyph-name="CR" unicode="&#xd;" horiz-adv-x="212" 
 />
    <glyph glyph-name="space" unicode=" " horiz-adv-x="212" 
 />
    <glyph glyph-name="exclam" unicode="!" horiz-adv-x="290" 
d="M69 667h151l-31 -466h-86zM79 151h131v-151h-131v151z" />
    <glyph glyph-name="quotedbl" unicode="&#x22;" horiz-adv-x="375" 
d="M59 667h105l-17 -290h-74zM212 667h105l-17 -290h-73z" />
    <glyph glyph-name="numbersign" unicode="#" horiz-adv-x="426" 
d="M143 667h84l-25 -192h57l25 192h84l-25 -192h68l-10 -81h-68l-14 -108h68l-11 -81h-68l-25 -205h-85l26 205h-57l-26 -205h-84l26 205h-68l10 81h69l13 108h-68l11 81h68zM248 394h-56l-14 -108h57z" />
    <glyph glyph-name="dollar" unicode="$" horiz-adv-x="426" 
d="M181 724h63v-69c81 -15 121 -64 147 -140l-99 -46c-23 61 -45 79 -84 79c-36 0 -58 -24 -58 -59c0 -40 29 -62 118 -96c121 -46 141 -115 141 -181c0 -109 -61 -185 -165 -195v-89h-63v90c-81 4 -138 53 -163 157l107 36c13 -59 41 -85 90 -85c47 0 71 25 71 64
c0 46 -31 68 -75 84c-132 47 -181 94 -181 199c0 100 52 170 151 183v68z" />
    <glyph glyph-name="percent" unicode="%" horiz-adv-x="528" 
d="M132 674c68 0 106 -68 106 -175c0 -104 -36 -169 -107 -169c-67 0 -108 62 -108 167c0 109 38 177 109 177zM100 0l268 667h62l-269 -667h-61zM131 401c18 0 22 18 22 99c0 62 0 100 -21 100c-24 0 -25 -32 -25 -99c0 -58 0 -100 24 -100zM399 337c68 0 106 -68 106 -175
c0 -104 -36 -169 -107 -169c-67 0 -108 62 -108 167c0 109 38 177 109 177zM398 64c18 0 22 18 22 99c0 62 0 100 -21 100c-24 0 -25 -32 -25 -99c0 -58 0 -100 24 -100z" />
    <glyph glyph-name="ampersand" unicode="&#x26;" horiz-adv-x="545" 
d="M431 380l91 -15c-3 -73 -27 -148 -70 -217c20 -27 36 -35 57 -35c3 0 8 1 14 2v-110c-24 -8 -33 -10 -52 -10c-39 0 -70 16 -99 53c-60 -46 -104 -58 -163 -58c-125 0 -186 88 -186 197c0 84 37 151 121 192c-25 44 -44 91 -44 139c0 84 54 159 153 159
c98 0 155 -64 155 -159c0 -61 -20 -114 -104 -167c24 -41 65 -98 84 -116c28 44 36 93 43 145zM261 433c39 19 56 51 56 92c0 40 -15 62 -46 62c-30 0 -48 -25 -48 -58c0 -28 15 -61 38 -96zM308 133c-37 44 -78 97 -110 156c-28 -19 -51 -50 -51 -99c0 -55 33 -91 87 -91
c31 0 54 10 74 34z" />
    <glyph glyph-name="quotesingle" unicode="'" horiz-adv-x="221" 
d="M58 667h105l-16 -289h-74z" />
    <glyph glyph-name="parenleft" unicode="(" horiz-adv-x="255" 
d="M162 667h98c-53 -123 -83 -270 -83 -417c0 -145 31 -300 83 -417h-98c-62 115 -102 274 -102 417c0 148 44 314 102 417z" />
    <glyph glyph-name="parenright" unicode=")" horiz-adv-x="255" 
d="M-4 667h98c65 -132 101 -272 101 -417c0 -134 -24 -258 -101 -417h-99c53 124 83 276 83 417c0 105 -7 217 -82 417z" />
    <glyph glyph-name="asterisk" unicode="*" horiz-adv-x="426" 
d="M170 667h86l-18 -111l82 63l41 -72l-93 -49l92 -47l-40 -70l-82 62l18 -108h-86l18 108l-82 -62l-40 70l92 47l-93 49l41 72l82 -63z" />
    <glyph glyph-name="plus" unicode="+" horiz-adv-x="426" 
d="M159 515h108v-129h127v-106h-127v-129h-108v129h-127v106h127v129z" />
    <glyph glyph-name="comma" unicode="," horiz-adv-x="221" 
d="M47 148h127v-133l-76 -172h-51l53 157h-53v148z" />
    <glyph glyph-name="hyphen" unicode="-" horiz-adv-x="239" 
d="M35 305h168v-106h-168v106z" />
    <glyph glyph-name="period" unicode="." horiz-adv-x="221" 
d="M47 146h127v-146h-127v146z" />
    <glyph glyph-name="slash" unicode="/" horiz-adv-x="477" 
d="M356 667h81l-349 -834h-81z" />
    <glyph glyph-name="zero" unicode="0" horiz-adv-x="426" 
d="M213 677c125 0 191 -97 191 -326c0 -211 -39 -361 -196 -361c-124 0 -186 101 -186 341c0 244 62 346 191 346zM213 573c-47 0 -47 -64 -47 -209c0 -228 2 -270 46 -270c48 0 48 40 48 265c0 167 -8 214 -47 214z" />
    <glyph glyph-name="one" unicode="1" horiz-adv-x="426" 
d="M190 674h107v-556h95v-118h-339v118h104v386c-42 -53 -56 -61 -103 -89v130c45 27 96 74 136 129z" />
    <glyph glyph-name="two" unicode="2" horiz-adv-x="426" 
d="M213 677c109 0 184 -67 184 -187c0 -51 -14 -102 -43 -154c-29 -51 -91 -122 -186 -210h233l-8 -126h-367v130c98 98 160 171 188 220s42 98 42 146c0 45 -16 65 -47 65c-41 0 -61 -43 -64 -128l-119 28c12 145 82 216 187 216z" />
    <glyph glyph-name="three" unicode="3" horiz-adv-x="426" 
d="M212 677c111 0 171 -67 171 -176c0 -71 -20 -124 -84 -150c69 -22 100 -78 100 -159c0 -128 -75 -202 -190 -202c-119 0 -188 78 -192 197l116 20c5 -71 25 -97 65 -97c43 0 64 28 64 89c0 45 -14 93 -89 93h-26v107h30c37 0 73 6 73 88c0 47 -17 75 -49 75
c-31 0 -49 -21 -57 -80l-113 25c23 115 82 170 181 170z" />
    <glyph glyph-name="four" unicode="4" horiz-adv-x="426" 
d="M213 674h128v-401h69v-113h-69v-160h-128v160h-197v113zM188 446l-82 -173h113v142c0 22 6 103 13 148c-13 -48 -33 -94 -44 -117z" />
    <glyph glyph-name="five" unicode="5" horiz-adv-x="426" 
d="M69 667h305l-12 -127h-196l-8 -144c23 29 54 45 91 45c92 0 155 -82 155 -217c0 -146 -69 -234 -196 -234c-111 0 -177 68 -185 188l117 23c6 -64 26 -91 66 -91c43 0 63 24 63 107c0 76 -20 107 -64 107c-32 0 -51 -16 -60 -53l-95 23z" />
    <glyph glyph-name="six" unicode="6" horiz-adv-x="426" 
d="M229 677c91 0 161 -52 177 -168l-107 -34c-5 65 -29 97 -66 97c-58 0 -73 -43 -73 -208c21 40 55 62 94 62c87 0 153 -82 153 -209c0 -128 -56 -227 -181 -227c-132 0 -196 111 -196 340c0 225 71 347 199 347zM165 206c0 -85 16 -112 56 -112c35 0 52 22 52 107
c0 93 -16 121 -56 121c-37 0 -52 -29 -52 -116z" />
    <glyph glyph-name="seven" unicode="7" horiz-adv-x="426" 
d="M48 667h340v-112c-31 -47 -59 -101 -80 -162c-44 -123 -60 -204 -61 -334c0 -25 1 -45 2 -59h-146c0 5 -2 28 -2 44c0 131 60 357 184 497h-247z" />
    <glyph glyph-name="eight" unicode="8" horiz-adv-x="426" 
d="M214 677c110 0 177 -67 177 -162c0 -65 -30 -115 -86 -147c72 -36 102 -105 102 -181c0 -126 -76 -197 -201 -197c-123 0 -187 68 -187 172c0 63 22 116 98 166c-52 35 -80 88 -80 163c0 115 70 186 177 186zM165 507c0 -48 22 -79 63 -92c29 23 41 53 41 90
c0 48 -18 77 -50 77c-33 0 -54 -31 -54 -75zM141 182c0 -57 24 -90 67 -90c40 0 67 29 67 81c0 51 -24 84 -84 106c-36 -28 -50 -57 -50 -97z" />
    <glyph glyph-name="nine" unicode="9" horiz-adv-x="426" 
d="M202 677c127 0 194 -103 194 -331c0 -243 -69 -356 -202 -356c-96 0 -153 52 -168 163l113 22c9 -53 24 -77 57 -77c54 0 74 63 74 179c0 10 -1 22 -1 33c-28 -45 -60 -63 -101 -63c-89 0 -149 77 -149 205c0 136 66 225 183 225zM146 462c0 -68 14 -105 58 -105
c40 0 61 33 61 106c0 71 -22 106 -61 106c-45 0 -58 -40 -58 -107z" />
    <glyph glyph-name="colon" unicode=":" horiz-adv-x="221" 
d="M47 493h127v-147h-127v147zM47 146h127v-146h-127v146z" />
    <glyph glyph-name="semicolon" unicode=";" horiz-adv-x="221" 
d="M47 493h127v-147h-127v147zM47 148h127v-133l-76 -172h-51l53 157h-53v148z" />
    <glyph glyph-name="less" unicode="&#x3c;" horiz-adv-x="426" 
d="M392 594v-121l-246 -140l246 -140v-120l-358 209v103z" />
    <glyph glyph-name="equal" unicode="=" horiz-adv-x="426" 
d="M32 468h362v-106h-362v106zM32 305h362v-106h-362v106z" />
    <glyph glyph-name="greater" unicode="&#x3e;" horiz-adv-x="426" 
d="M34 594l358 -209v-103l-358 -209v120l246 140l-246 140v121z" />
    <glyph glyph-name="question" unicode="?" horiz-adv-x="426" 
d="M221 677c92 0 168 -62 168 -184c0 -79 -22 -133 -86 -193c-35 -33 -38 -44 -38 -96v-13h-111v24c0 99 15 115 51 152c39 41 51 68 51 116c0 49 -13 75 -46 75c-40 0 -57 -15 -59 -110l-112 18v16c0 131 82 195 182 195zM152 144h123v-144h-123v144z" />
    <glyph glyph-name="at" unicode="@" horiz-adv-x="579" 
d="M304 688c160 0 247 -131 247 -300c0 -129 -53 -250 -149 -250c-39 0 -64 14 -80 54c-16 -41 -36 -54 -64 -54c-51 0 -83 51 -83 146c0 123 46 227 118 227c25 0 42 -11 56 -47l6 40h65l-26 -190c-4 -27 -7 -61 -7 -70c0 -25 10 -34 27 -34c49 0 60 102 60 169
c0 145 -57 237 -170 237c-124 0 -195 -120 -195 -283c0 -154 67 -281 204 -281c54 0 88 6 131 27l21 -64c-47 -23 -97 -34 -148 -34c-187 0 -290 149 -290 350c0 204 110 357 277 357zM256 280c0 -43 8 -55 22 -55c41 0 46 129 46 146c0 37 -7 53 -26 53
c-27 0 -42 -81 -42 -144z" />
    <glyph glyph-name="A" unicode="A" horiz-adv-x="426" 
d="M143 667h142l151 -667h-138l-27 144h-132l-26 -144h-123zM189 436l-36 -184h103l-37 178c-10 49 -12 71 -14 112c-3 -23 -10 -73 -16 -106z" />
    <glyph glyph-name="B" unicode="B" horiz-adv-x="477" 
d="M50 0v667h208c42 0 74 -4 95 -13c44 -18 86 -71 86 -160c0 -73 -19 -121 -83 -146c72 -24 102 -83 102 -167c0 -40 -9 -75 -26 -105c-33 -59 -82 -76 -173 -76h-209zM182 560v-162h54c40 0 70 16 70 77c0 55 -24 85 -75 85h-49zM182 291v-180h58c66 0 78 39 78 89
c0 33 -4 91 -71 91h-65z" />
    <glyph glyph-name="C" unicode="C" horiz-adv-x="460" 
d="M247 677c121 0 191 -73 199 -257l-121 -10c-2 104 -26 148 -75 148c-60 0 -75 -63 -75 -235c0 -170 17 -214 71 -214c56 0 70 34 79 133l116 -9c-9 -164 -79 -243 -198 -243c-144 0 -213 113 -213 340c0 224 74 347 217 347z" />
    <glyph glyph-name="D" unicode="D" horiz-adv-x="494" 
d="M51 667h161c224 0 252 -188 252 -326c0 -214 -77 -341 -226 -341h-187v667zM185 551v-434h40c25 0 47 6 61 18c29 24 33 118 33 196c0 147 -14 220 -85 220h-49z" />
    <glyph glyph-name="E" unicode="E" 
d="M51 667h347v-117h-210v-155h161v-111h-161v-167h210v-117h-347v667z" />
    <glyph glyph-name="F" unicode="F" horiz-adv-x="375" 
d="M51 667h327v-117h-190v-173h146v-111h-146v-266h-137v667z" />
    <glyph glyph-name="G" unicode="G" horiz-adv-x="477" 
d="M248 677c112 0 178 -71 193 -226l-113 -21l-9 52c-9 51 -29 76 -70 76c-62 0 -78 -50 -78 -240c0 -156 19 -209 79 -209s73 52 73 132h-83v111h202v-352h-59l-16 80c-31 -67 -69 -90 -133 -90c-136 0 -204 111 -204 335c0 227 75 352 218 352z" />
    <glyph glyph-name="H" unicode="H" horiz-adv-x="477" 
d="M51 667h137v-263h101v263h137v-667h-137v287h-101v-287h-137v667z" />
    <glyph glyph-name="I" unicode="I" horiz-adv-x="239" 
d="M51 667h137v-667h-137v667z" />
    <glyph glyph-name="J" unicode="J" horiz-adv-x="307" 
d="M125 667h137v-477c0 -143 -48 -200 -161 -200c-27 0 -54 4 -81 12v119c28 -3 36 -4 47 -4c49 0 58 24 58 96v454z" />
    <glyph glyph-name="K" unicode="K" horiz-adv-x="460" 
d="M51 667h137v-219c0 -5 -1 -16 -5 -77c8 29 16 55 24 73l101 223h134l-135 -247l155 -420h-141l-94 301l-39 -89v-212h-137v667z" />
    <glyph glyph-name="L" unicode="L" horiz-adv-x="358" 
d="M51 667h137v-544h169v-123h-306v667z" />
    <glyph glyph-name="M" unicode="M" horiz-adv-x="630" 
d="M51 667h188l49 -272c17 -96 19 -145 23 -199c4 60 15 144 30 215l55 256h184v-667h-131v390c0 34 5 125 7 191c-7 -50 -25 -172 -29 -194l-81 -387h-86l-78 392c-5 28 -11 61 -26 190c3 -105 4 -164 4 -177v-405h-109v667z" />
    <glyph glyph-name="N" unicode="N" horiz-adv-x="477" 
d="M51 667h134l103 -291c6 -17 20 -61 37 -146c-8 112 -10 169 -10 197v240h111v-667h-111l-125 341c-13 36 -26 79 -39 136c9 -101 11 -179 11 -193v-284h-111v667z" />
    <glyph glyph-name="O" unicode="O" horiz-adv-x="477" 
d="M240 677c140 0 207 -107 207 -348c0 -239 -69 -339 -210 -339c-148 0 -207 122 -207 351c0 233 70 336 210 336zM175 327c0 -151 7 -218 65 -218c53 0 62 37 62 226c0 167 -7 223 -65 223c-62 0 -62 -105 -62 -231z" />
    <glyph glyph-name="P" unicode="P" horiz-adv-x="443" 
d="M51 0v667h203c139 0 177 -114 177 -212c0 -124 -55 -209 -181 -209h-65v-246h-134zM220 562h-35v-199h37c53 0 67 34 67 102s-24 97 -69 97z" />
    <glyph glyph-name="Q" unicode="Q" horiz-adv-x="477" 
d="M240 677c140 0 207 -107 207 -348c0 -190 -46 -270 -97 -308c0 -31 12 -42 45 -42c11 0 25 0 38 4v-111c-25 -5 -35 -7 -56 -7c-81 0 -124 36 -125 125h-16c-120 0 -206 75 -206 346c0 238 70 341 210 341zM175 327c0 -155 7 -218 65 -218c52 0 62 37 62 226
c0 167 -8 223 -65 223c-62 0 -62 -109 -62 -231z" />
    <glyph glyph-name="R" unicode="R" horiz-adv-x="460" 
d="M51 0v667h210c126 0 172 -97 172 -199c0 -79 -19 -139 -87 -179l101 -289h-144l-75 262h-43v-262h-134zM185 562v-190h35c46 0 77 19 77 98c0 72 -30 92 -80 92h-32z" />
    <glyph glyph-name="S" unicode="S" 
d="M206 677c88 0 152 -46 182 -153l-102 -45c-11 48 -36 78 -76 78c-37 0 -58 -26 -58 -65c0 -42 16 -59 100 -95c117 -50 146 -116 146 -196c0 -128 -77 -211 -202 -211c-111 0 -175 61 -196 180l109 38c15 -68 38 -98 87 -98c44 0 68 30 68 71c0 37 -19 59 -61 78
c-143 65 -179 120 -179 224c0 85 62 194 182 194z" />
    <glyph glyph-name="T" unicode="T" horiz-adv-x="358" 
d="M0 667h358v-126h-112v-541h-137v541h-109v126z" />
    <glyph glyph-name="U" unicode="U" horiz-adv-x="477" 
d="M45 667h137v-441c0 -87 20 -114 68 -114c42 0 66 18 66 118v437h116v-440c0 -176 -64 -237 -191 -237c-149 0 -196 72 -196 241v436z" />
    <glyph glyph-name="V" unicode="V" 
d="M-3 667h142l51 -306c7 -44 18 -131 25 -197c4 53 11 119 24 194l55 309h118l-140 -667h-139z" />
    <glyph glyph-name="W" unicode="W" horiz-adv-x="630" 
d="M0 667h145l37 -314c9 -73 8 -116 13 -175c5 64 21 193 21 192l49 297h123l51 -300c8 -47 9 -73 19 -190c3 61 8 141 15 193l39 297h119l-121 -667h-120l-55 315c-14 80 -17 124 -18 161c-4 -40 -11 -106 -21 -166l-54 -310h-120z" />
    <glyph glyph-name="X" unicode="X" horiz-adv-x="426" 
d="M11 667h153l40 -127c7 -23 13 -57 16 -101c2 31 16 97 24 118l39 110h131l-134 -308l151 -359h-148l-57 160c-11 31 -18 58 -18 113c-5 -49 -12 -86 -19 -105l-65 -168h-129l148 349z" />
    <glyph glyph-name="Y" unicode="Y" 
d="M-6 667h144l52 -190c19 -68 16 -74 18 -127c6 54 6 68 27 138l54 179h123l-148 -393v-274h-137v274z" />
    <glyph glyph-name="Z" unicode="Z" 
d="M31 667h359v-105l-227 -445h233v-117h-383v107l227 449h-209v111z" />
    <glyph glyph-name="bracketleft" unicode="[" horiz-adv-x="273" 
d="M80 667h178v-64h-64v-712h64v-58h-178v834z" />
    <glyph glyph-name="backslash" unicode="\" horiz-adv-x="477" 
d="M41 667h82l349 -834h-82z" />
    <glyph glyph-name="bracketright" unicode="]" horiz-adv-x="273" 
d="M14 667h178v-834h-178v58h64v712h-64v64z" />
    <glyph glyph-name="asciicircum" unicode="^" horiz-adv-x="426" 
d="M162 667h103l161 -358h-121l-92 246l-93 -246h-120z" />
    <glyph glyph-name="underscore" unicode="_" horiz-adv-x="500" 
d="M0 -75h500v-50h-500v50z" />
    <glyph glyph-name="grave" unicode="`" horiz-adv-x="460" 
d="M165 714l137 -131l-40 -43l-154 108z" />
    <glyph glyph-name="a" unicode="a" horiz-adv-x="375" 
d="M187 503c47 0 90 -15 117 -42s36 -58 36 -139v-266c0 -16 1 -36 6 -56h-113c-7 15 -8 26 -8 46v15c-25 -46 -65 -71 -104 -71c-61 0 -106 47 -106 138c0 86 47 165 178 176l24 2c0 80 -6 104 -34 104c-25 0 -39 -24 -42 -73l-112 13c13 104 70 153 158 153zM143 140
c0 -35 7 -61 32 -61c31 0 42 26 42 107v51c-48 -9 -74 -30 -74 -97z" />
    <glyph glyph-name="b" unicode="b" horiz-adv-x="392" 
d="M38 667h125v-222c16 34 43 54 75 54c79 0 133 -73 133 -244c0 -174 -48 -261 -136 -261c-52 0 -85 29 -97 71l-33 -65h-67v667zM163 346v-202c0 -42 10 -60 33 -60c33 0 42 37 42 164c0 33 0 114 -16 145c-5 9 -11 13 -24 13c-20 0 -35 -11 -35 -60z" />
    <glyph glyph-name="c" unicode="c" horiz-adv-x="375" 
d="M198 503c105 0 162 -68 166 -188l-115 -7c-3 79 -16 102 -48 102c-36 0 -48 -30 -48 -157c0 -102 1 -164 47 -164c41 0 49 37 55 104l108 -9c-3 -152 -85 -194 -164 -194c-121 0 -179 87 -179 254c0 143 51 259 178 259z" />
    <glyph glyph-name="d" unicode="d" horiz-adv-x="392" 
d="M229 667h125v-667h-112v72c-24 -59 -55 -78 -94 -78c-84 0 -128 83 -128 249c0 170 53 256 133 256c31 0 55 -13 76 -42v210zM153 247c0 -123 3 -163 40 -163c27 0 36 25 36 90v180c0 37 -12 52 -35 52c-9 0 -18 -3 -24 -11c-13 -17 -17 -46 -17 -148z" />
    <glyph glyph-name="e" unicode="e" horiz-adv-x="375" 
d="M197 503c130 0 168 -118 168 -249v-29h-217v-25c0 -85 17 -111 54 -111c32 0 46 21 53 81l105 -9c-8 -108 -67 -171 -162 -171c-117 0 -178 82 -178 253c0 168 62 260 177 260zM147 306h99c-1 76 -14 107 -46 107c-31 0 -50 -27 -53 -107z" />
    <glyph glyph-name="f" unicode="f" horiz-adv-x="239" 
d="M195 693c24 0 38 -2 54 -6v-105c-10 1 -18 2 -25 2c-35 0 -41 -19 -41 -56v-35h60v-103h-60v-390h-128v390h-53v103h53v22c0 131 47 178 140 178z" />
    <glyph glyph-name="g" unicode="g" 
d="M386 577c11 0 13 -1 32 -5v-88c-10 5 -18 7 -25 7c-24 0 -38 -15 -46 -47c24 -33 30 -57 30 -94c0 -96 -60 -154 -151 -154c-16 0 -41 3 -57 6c-17 -9 -24 -26 -24 -41c0 -19 2 -32 68 -38c37 -4 81 -9 90 -11c86 -17 108 -65 108 -129c0 -100 -74 -155 -205 -155
c-120 0 -182 36 -182 111c0 47 19 79 66 100c-35 21 -50 47 -50 80c0 44 24 85 67 108c-43 21 -65 61 -65 118c0 110 70 158 169 158c33 0 67 -6 98 -22v4c0 61 26 92 77 92zM170 354c0 -60 13 -82 41 -82c24 0 38 14 38 77c0 53 -9 80 -41 80c-22 0 -38 -18 -38 -75z
M143 15c-15 -20 -17 -30 -17 -44c0 -35 30 -49 89 -49c53 0 78 16 78 45c0 33 -27 40 -85 43c-20 1 -45 3 -65 5z" />
    <glyph glyph-name="h" unicode="h" 
d="M38 667h128v-238c19 55 51 74 100 74c71 0 108 -36 108 -135v-368h-128v351c0 39 -15 46 -38 46c-29 0 -42 -14 -42 -51v-346h-128v667z" />
    <glyph glyph-name="i" unicode="i" horiz-adv-x="204" 
d="M38 673h128v-136h-128v136zM38 493h128v-493h-128v493z" />
    <glyph glyph-name="j" unicode="j" horiz-adv-x="204" 
d="M38 673h128v-136h-128v136zM38 493h128v-498c0 -113 -9 -173 -129 -173c-19 0 -35 1 -56 3v104c8 -1 16 -1 19 -1c33 0 38 20 38 68v497z" />
    <glyph glyph-name="k" unicode="k" horiz-adv-x="392" 
d="M38 667h128v-348l99 174h120l-116 -175l125 -318h-133l-67 214l-28 -47v-167h-128v667z" />
    <glyph glyph-name="l" unicode="l" horiz-adv-x="204" 
d="M38 667h128v-667h-128v667z" />
    <glyph glyph-name="m" unicode="m" horiz-adv-x="596" 
d="M254 503c52 0 82 -20 103 -79c16 55 47 79 96 79c69 0 108 -34 108 -139v-364h-125v350c0 37 -12 47 -36 47c-25 0 -38 -14 -38 -55v-342h-125v344c0 41 -10 53 -35 53c-28 0 -39 -13 -39 -61v-336h-125v493h115v-73c22 59 50 83 101 83z" />
    <glyph glyph-name="n" unicode="n" 
d="M263 503c73 0 111 -33 111 -138v-365h-128v341c0 47 -12 57 -39 57s-41 -14 -41 -59v-339h-128v493h114v-73c25 60 58 83 111 83z" />
    <glyph glyph-name="o" unicode="o" horiz-adv-x="392" 
d="M196 503c116 0 175 -95 175 -255c0 -169 -60 -258 -178 -258c-133 0 -173 123 -173 265c0 152 60 248 176 248zM153 249c0 -117 1 -169 42 -169c43 0 43 53 43 171s-1 162 -41 162c-44 0 -44 -44 -44 -164z" />
    <glyph glyph-name="p" unicode="p" horiz-adv-x="392" 
d="M240 499c86 0 131 -95 131 -243c0 -107 -21 -262 -128 -262c-32 0 -56 9 -80 40v-201h-125v660h111v-55c24 40 54 61 91 61zM163 348v-190c0 -64 12 -74 33 -74c36 0 42 41 42 188c0 119 -18 133 -42 133c-23 0 -33 -21 -33 -57z" />
    <glyph glyph-name="q" unicode="q" horiz-adv-x="392" 
d="M160 499c47 0 79 -21 105 -74l26 68h67c-3 -24 -4 -55 -4 -63v-597h-125v202c-20 -29 -43 -41 -76 -41c-86 0 -133 75 -133 243c0 185 52 262 140 262zM153 240c0 -114 5 -156 37 -156c39 0 39 43 39 146v124c0 35 -13 52 -38 52c-31 0 -38 -22 -38 -166z" />
    <glyph glyph-name="r" unicode="r" horiz-adv-x="290" 
d="M255 503c12 0 27 -2 34 -3v-135c-3 0 -13 1 -17 1c-88 0 -106 -61 -106 -137v-229h-128v493h114v-120c21 85 56 130 103 130z" />
    <glyph glyph-name="s" unicode="s" horiz-adv-x="358" 
d="M184 503c74 0 122 -37 143 -128l-91 -23c-5 37 -24 56 -55 56c-27 0 -41 -14 -41 -35c0 -18 11 -32 34 -44c25 -13 51 -25 76 -37c55 -26 97 -66 97 -144c0 -100 -68 -158 -167 -158c-93 0 -153 46 -166 146l99 16c7 -46 26 -64 65 -64c26 0 49 11 49 38
c0 24 -5 37 -80 71c-99 45 -122 90 -122 151c0 91 67 155 159 155z" />
    <glyph glyph-name="t" unicode="t" horiz-adv-x="273" 
d="M183 654v-159h77v-103h-77v-213c0 -59 12 -72 52 -72c13 0 22 0 31 3v-102c-29 -8 -58 -13 -76 -13c-100 0 -135 45 -135 149v248h-53v103h59l11 151z" />
    <glyph glyph-name="u" unicode="u" 
d="M35 493h128v-343c0 -40 12 -55 37 -55c36 0 43 20 43 76v322h128v-493h-114v70c-27 -57 -60 -80 -109 -80c-65 0 -113 22 -113 140v363z" />
    <glyph glyph-name="v" unicode="v" horiz-adv-x="324" 
d="M-4 493h128l35 -201c4 -25 8 -81 11 -133v-1c4 49 15 125 19 151l31 184h108l-113 -493h-103z" />
    <glyph glyph-name="w" unicode="w" horiz-adv-x="511" 
d="M-4 493h126l33 -187c5 -28 8 -83 11 -139c9 108 12 134 16 159l25 167h119l27 -174c7 -46 13 -131 14 -151c12 119 15 139 17 152l27 173h104l-107 -493h-99l-48 285c-2 12 -5 51 -7 73c-1 -28 -5 -79 -10 -110l-39 -248h-102z" />
    <glyph glyph-name="x" unicode="x" horiz-adv-x="341" 
d="M4 493h140l29 -80c6 -17 11 -44 13 -79c4 32 8 53 11 63l34 96h113l-106 -227l114 -266h-142l-41 121c-3 10 -7 34 -8 67c-3 -24 -8 -63 -18 -87l-42 -101h-113l122 254z" />
    <glyph glyph-name="y" unicode="y" horiz-adv-x="324" 
d="M-3 493h128l37 -177c5 -24 9 -65 14 -148c7 66 10 122 21 179l28 146h104l-125 -505c-12 -47 -22 -80 -31 -97c-18 -35 -59 -60 -109 -60c-17 0 -32 3 -49 7v103c15 -4 29 -6 38 -6c44 0 56 34 56 109z" />
    <glyph glyph-name="z" unicode="z" horiz-adv-x="324" 
d="M40 493h262v-82l-147 -311h153v-100h-283v97l144 303h-129v93z" />
    <glyph glyph-name="braceleft" unicode="{" horiz-adv-x="256" 
d="M75 -11v150c0 54 -15 66 -48 66v90c31 0 48 10 48 64v155c0 103 22 153 120 153h46v-75c-51 0 -56 -19 -56 -79v-155c0 -66 -6 -89 -55 -108c50 -19 55 -45 55 -107v-159c0 -60 5 -76 56 -76v-75h-28c-107 0 -138 24 -138 156z" />
    <glyph glyph-name="bar" unicode="|" horiz-adv-x="500" 
d="M186 750h128v-1000h-128v1000z" />
    <glyph glyph-name="braceright" unicode="}" horiz-adv-x="256" 
d="M181 139v-150c0 -132 -31 -156 -138 -156h-28v75c51 0 56 16 56 76v159c0 62 5 88 55 107c-49 19 -55 42 -55 108v155c0 60 -6 79 -56 79v75h46c98 0 120 -50 120 -153v-155c0 -54 17 -64 48 -64v-90c-33 0 -48 -12 -48 -66z" />
    <glyph glyph-name="asciitilde" unicode="~" horiz-adv-x="426" 
d="M362 417l64 -45c-34 -87 -78 -124 -139 -124c-48 0 -123 43 -161 43c-29 0 -45 -13 -64 -53l-62 56c38 102 83 122 133 122c53 0 124 -44 166 -44c27 0 43 10 63 45z" />
    <glyph glyph-name="Euro" unicode="&#x20ac;" horiz-adv-x="426" 
d="M257 677c100 0 160 -68 168 -202l-108 -11c-7 76 -26 109 -59 109c-32 0 -48 -42 -52 -145h119l-11 -67h-110v-48h102l-11 -67h-90c4 -103 19 -152 52 -152c42 0 52 51 57 104l109 -9c-9 -132 -70 -199 -170 -199c-129 0 -170 81 -182 256h-60l11 67h47v48h-58l11 67h51
c16 165 81 249 184 249z" />
    <glyph glyph-name="quotesinglbase" unicode="&#x201a;" horiz-adv-x="221" 
d="M51 146h120v-146l-62 -132h-58l47 132h-47v146z" />
    <glyph glyph-name="florin" unicode="&#x192;" horiz-adv-x="426" 
d="M312 684c32 0 54 -5 62 -10l-13 -105c-11 2 -22 4 -34 4c-32 0 -38 -21 -43 -89h62l-13 -106h-63l-39 -327c-17 -138 -52 -196 -156 -196c-16 0 -36 1 -64 6l17 107c12 -1 22 -2 29 -2c40 0 46 31 53 98l39 314h-55l13 106h56c7 61 17 104 31 129c27 51 73 71 118 71z
" />
    <glyph glyph-name="quotedblbase" unicode="&#x201e;" horiz-adv-x="375" 
d="M42 146h120v-146l-62 -132h-58l47 132h-47v146zM213 146h120v-146l-62 -132h-58l47 132h-47v146z" />
    <glyph glyph-name="ellipsis" unicode="&#x2026;" horiz-adv-x="665" 
d="M47 146h127v-146h-127v146zM269 146h127v-146h-127v146zM491 146h127v-146h-127v146z" />
    <glyph glyph-name="dagger" unicode="&#x2020;" horiz-adv-x="426" 
d="M151 667h124v-179h118v-109h-118v-546h-124v546h-118v109h118v179z" />
    <glyph glyph-name="daggerdbl" unicode="&#x2021;" horiz-adv-x="426" 
d="M151 667h124v-179h118v-109h-118v-258h118v-109h-118v-179h-124v179h-118v109h118v258h-118v109h118v179z" />
    <glyph glyph-name="circumflex" unicode="&#x2c6;" horiz-adv-x="460" 
d="M82 555l149 143l147 -143h-87l-60 48l-63 -48h-86z" />
    <glyph glyph-name="perthousand" unicode="&#x2030;" horiz-adv-x="767" 
d="M132 674c69 0 106 -69 106 -175c0 -105 -36 -169 -107 -169c-67 0 -108 62 -108 167c0 109 38 177 109 177zM100 0l269 667h61l-269 -667h-61zM399 337c69 0 106 -69 106 -175c0 -105 -36 -169 -107 -169c-67 0 -108 62 -108 167c0 109 38 177 109 177zM399 64
c21 0 21 37 21 99c0 66 0 100 -22 100c-24 0 -24 -35 -24 -101c0 -60 0 -98 25 -98zM638 337c69 0 106 -69 106 -175c0 -105 -36 -169 -107 -169c-67 0 -108 62 -108 167c0 109 38 177 109 177zM638 64c21 0 21 37 21 99c0 66 0 100 -22 100c-24 0 -24 -35 -24 -101
c0 -60 0 -98 25 -98zM132 401c21 0 21 37 21 99c0 66 0 100 -22 100c-24 0 -24 -35 -24 -101c0 -60 0 -98 25 -98z" />
    <glyph glyph-name="Scaron" unicode="&#x160;" 
d="M206 677c88 0 152 -46 182 -153l-102 -45c-11 48 -36 78 -76 78c-37 0 -58 -26 -58 -65c0 -42 16 -59 100 -95c117 -50 146 -116 146 -196c0 -128 -77 -211 -202 -211c-111 0 -175 61 -196 180l109 38c15 -68 38 -98 87 -98c44 0 68 30 68 71c0 37 -19 59 -61 78
c-143 65 -179 120 -179 224c0 85 62 194 182 194zM382 855l-171 -153l-173 153h93l80 -51l78 51h93z" />
    <glyph glyph-name="guilsinglleft" unicode="&#x2039;" horiz-adv-x="222" 
d="M36 259l88 172h62l-50 -172l50 -169h-62z" />
    <glyph glyph-name="OE" unicode="&#x152;" horiz-adv-x="681" 
d="M249 677c38 0 130 -10 167 -10h254v-117h-209v-154h161v-111h-161v-168h209v-117h-276c-34 0 -118 -10 -158 -10c-153 0 -206 143 -206 338c0 205 43 349 219 349zM250 98c31 0 53 5 74 20v434c-31 15 -41 17 -65 17c-71 0 -84 -88 -84 -245c0 -101 2 -226 75 -226z" />
    <glyph glyph-name="Zcaron" unicode="&#x17d;" 
d="M31 667h359v-105l-227 -445h233v-117h-383v107l227 449h-209v111zM386 855l-171 -153l-173 153h93l80 -51l78 51h93z" />
    <glyph glyph-name="quoteleft" unicode="&#x2018;" horiz-adv-x="221" 
d="M51 535l62 132h58l-47 -132h47v-146h-120v146z" />
    <glyph glyph-name="quoteright" unicode="&#x2019;" horiz-adv-x="221" 
d="M51 667h120v-146l-62 -132h-58l47 132h-47v146z" />
    <glyph glyph-name="quotedblleft" unicode="&#x201c;" horiz-adv-x="375" 
d="M42 535l62 132h58l-47 -132h47v-146h-120v146zM213 535l62 132h58l-47 -132h47v-146h-120v146z" />
    <glyph glyph-name="quotedblright" unicode="&#x201d;" horiz-adv-x="375" 
d="M42 667h120v-146l-62 -132h-58l47 132h-47v146zM213 667h120v-146l-62 -132h-58l47 132h-47v146z" />
    <glyph glyph-name="bullet" unicode="&#x2022;" horiz-adv-x="134" 
d="M0 420h134v-153h-134v153z" />
    <glyph glyph-name="endash" unicode="&#x2013;" horiz-adv-x="392" 
d="M35 305h321v-106h-321v106z" />
    <glyph glyph-name="emdash" unicode="&#x2014;" horiz-adv-x="562" 
d="M35 305h492v-106h-492v106z" />
    <glyph glyph-name="tilde" unicode="&#x2dc;" horiz-adv-x="460" 
d="M183 677c30 0 81 -44 105 -44c12 0 20 3 39 37l35 -30c-25 -52 -51 -76 -87 -76c-38 0 -80 44 -103 44c-15 0 -25 -10 -38 -30l-33 30c25 44 52 69 82 69z" />
    <glyph glyph-name="trademark" unicode="&#x2122;" horiz-adv-x="630" 
d="M15 667h219v-76h-66v-304h-89v304h-64v76zM261 667h118l25 -129c8 -40 11 -68 15 -94c1 10 7 51 18 98l29 125h115v-380h-85v218l3 53c-3 -27 -8 -50 -10 -57l-47 -214h-57l-43 209c-2 8 -7 39 -12 61l3 -43v-227h-72v380z" />
    <glyph glyph-name="scaron" unicode="&#x161;" horiz-adv-x="358" 
d="M184 503c74 0 122 -37 143 -128l-91 -23c-5 37 -24 56 -55 56c-27 0 -41 -14 -41 -35c0 -18 11 -32 34 -44c25 -13 51 -25 76 -37c55 -26 97 -66 97 -144c0 -100 -68 -158 -167 -158c-93 0 -153 46 -166 146l99 16c7 -46 26 -64 65 -64c26 0 49 11 49 38
c0 24 -5 37 -80 71c-99 45 -122 90 -122 151c0 91 67 155 159 155zM33 692h86l63 -48l60 48h87l-147 -144z" />
    <glyph glyph-name="guilsinglright" unicode="&#x203a;" horiz-adv-x="222" 
d="M85 259l-49 172h61l89 -172l-89 -169h-61z" />
    <glyph glyph-name="oe" unicode="&#x153;" horiz-adv-x="596" 
d="M197 503c48 0 86 -20 118 -65c27 43 62 65 110 65c25 0 63 -9 89 -31c50 -43 73 -97 73 -241v-6h-217c1 -61 1 -136 50 -136c42 0 47 23 56 81l106 -9c-7 -104 -66 -171 -159 -171c-47 0 -84 16 -119 53c-34 -41 -67 -53 -112 -53c-115 0 -172 100 -172 259
s62 254 177 254zM153 262c0 -132 0 -182 45 -182c41 0 44 34 44 170c0 126 0 163 -46 163c-41 0 -43 -52 -43 -151zM369 306h98c0 68 -10 107 -47 107c-35 0 -49 -41 -51 -107z" />
    <glyph glyph-name="zcaron" unicode="&#x17e;" horiz-adv-x="324" 
d="M40 493h262v-82l-147 -311h153v-100h-283v97l144 303h-129v93zM28 692h86l63 -48l60 48h87l-147 -144z" />
    <glyph glyph-name="Ydieresis" unicode="&#x178;" 
d="M-6 667h144l52 -190c19 -68 16 -74 18 -127c6 54 6 68 27 138l54 179h123l-148 -393v-274h-137v274zM135 720c-28 0 -55 22 -55 55c0 32 24 56 55 56s56 -24 56 -55c0 -33 -25 -56 -56 -56zM279 720c-29 0 -56 22 -56 55c0 32 25 56 56 56s55 -24 55 -55
c0 -33 -26 -56 -55 -56z" />
    <glyph glyph-name="uni00A0" unicode="&#xa0;" horiz-adv-x="212" 
 />
    <glyph glyph-name="exclamdown" unicode="&#xa1;" horiz-adv-x="290" 
d="M80 493h131v-151h-131v151zM101 292h86l34 -466h-151z" />
    <glyph glyph-name="cent" unicode="&#xa2;" horiz-adv-x="426" 
d="M190 577v94h59v-92c85 -9 131 -80 131 -171v-8l-114 -7c-3 69 -12 94 -37 94c-39 0 -39 -66 -39 -146c0 -110 6 -146 39 -146c32 0 39 40 44 96l108 -8c-1 -113 -48 -173 -132 -185v-105h-59v107c-92 14 -133 102 -133 235c0 137 46 223 133 242z" />
    <glyph glyph-name="sterling" unicode="&#xa3;" horiz-adv-x="426" 
d="M265 677c73 0 117 -43 137 -126l-88 -49c-8 39 -18 67 -42 67c-29 0 -44 -26 -44 -72c0 -12 2 -45 8 -92h90v-96h-82v-9c0 -95 -17 -151 -70 -190h69c61 0 83 35 93 95l100 -25c0 -34 -8 -66 -25 -97c-33 -60 -75 -83 -159 -83h-241v110h40c41 0 65 38 65 134
c0 21 -1 40 -4 65h-61v96h50c-3 22 -5 37 -5 66c0 139 80 206 169 206z" />
    <glyph glyph-name="currency" unicode="&#xa4;" horiz-adv-x="426" 
d="M81 530l59 -58c24 12 48 18 73 18s51 -6 75 -19l58 58l63 -63l-58 -58c15 -25 19 -46 19 -74c0 -29 -3 -44 -18 -73l58 -59l-66 -65l-58 58c-28 -14 -43 -18 -74 -18c-25 0 -41 3 -74 19l-58 -58l-63 63l58 58c-17 36 -19 51 -19 75c0 27 3 44 18 72l-57 58zM153 333
c0 -32 27 -59 60 -59c31 0 60 24 60 59c0 33 -26 60 -61 60c-31 0 -59 -27 -59 -60z" />
    <glyph glyph-name="yen" unicode="&#xa5;" horiz-adv-x="426" 
d="M15 667h132l63 -209c8 -28 12 -35 14 -97c3 27 6 59 18 96l67 210h107l-97 -261h77v-62h-101l-21 -58h122v-62h-123v-224h-119v224h-132v62h131l-21 58h-110v62h87z" />
    <glyph glyph-name="brokenbar" unicode="&#xa6;" horiz-adv-x="500" 
d="M186 675h128v-350h-128v350zM186 175h128v-350h-128v350z" />
    <glyph glyph-name="section" unicode="&#xa7;" horiz-adv-x="426" 
d="M220 677c79 0 132 -38 155 -123l-88 -32c-9 41 -26 66 -58 66c-33 0 -52 -21 -52 -53c0 -34 24 -60 66 -80c45 -22 78 -41 99 -66c27 -31 37 -69 37 -112c0 -55 -15 -95 -58 -127c47 -33 66 -84 66 -144c0 -115 -67 -184 -171 -184c-101 0 -163 53 -175 148l95 25
c11 -54 37 -78 78 -78c39 0 58 25 58 65c0 44 -20 64 -92 99c-100 48 -137 102 -137 179c0 57 19 103 68 138c-35 29 -48 68 -48 116c0 96 62 163 157 163zM177 348c-20 -17 -26 -35 -26 -52c0 -39 23 -64 100 -103c19 21 24 36 24 55c0 39 -37 67 -98 100z" />
    <glyph glyph-name="dieresis" unicode="&#xa8;" horiz-adv-x="460" 
d="M162 672c28 0 51 -23 51 -51s-21 -52 -51 -52c-29 0 -52 23 -52 52s23 51 52 51zM298 672c27 0 51 -23 51 -51c0 -29 -22 -52 -51 -52s-52 23 -52 52c0 28 23 51 52 51z" />
    <glyph glyph-name="copyright" unicode="&#xa9;" horiz-adv-x="759" 
d="M379 679c194 0 349 -159 349 -340c0 -211 -167 -351 -345 -351c-199 0 -353 153 -353 345c0 189 157 346 349 346zM115 333c0 -146 117 -268 264 -268c146 0 264 121 264 268c0 146 -118 269 -265 269c-145 0 -263 -125 -263 -269zM385 539c81 0 126 -45 131 -160l-88 -7
c-1 64 -13 87 -41 87c-35 0 -41 -37 -41 -133c0 -92 9 -119 38 -119c33 0 39 23 44 78l85 -6c-7 -105 -53 -152 -130 -152c-95 0 -141 70 -141 203c0 136 50 209 143 209z" />
    <glyph glyph-name="ordfeminine" unicode="&#xaa;" 
d="M201 677c28 0 54 -5 73 -15c35 -18 45 -40 45 -106v-176c0 -13 1 -23 5 -36h-83c-4 8 -5 19 -5 31v9c-16 -27 -45 -47 -85 -47c-55 0 -84 32 -84 91c0 62 39 115 147 118c0 45 -2 62 -25 62c-19 0 -29 -13 -30 -41l-82 8c8 68 51 102 124 102zM168 437
c0 -17 5 -34 23 -34c22 0 31 15 31 66v25c-36 -6 -54 -22 -54 -57z" />
    <glyph glyph-name="guillemotleft" unicode="&#xab;" horiz-adv-x="375" 
d="M36 259l88 172h62l-50 -172l50 -169h-62zM189 259l88 172h62l-49 -172l49 -169h-62z" />
    <glyph glyph-name="logicalnot" unicode="&#xac;" horiz-adv-x="426" 
d="M33 468h361v-269h-106v163h-255v106z" />
    <glyph glyph-name="uni00AD" unicode="&#xad;" horiz-adv-x="239" 
d="M35 305h168v-106h-168v106z" />
    <glyph glyph-name="registered" unicode="&#xae;" horiz-adv-x="460" 
d="M230 674c111 0 200 -91 200 -201c0 -109 -89 -199 -200 -199c-112 0 -200 90 -200 199c0 110 89 201 200 201zM84 473c0 -83 67 -148 146 -148c80 0 146 66 146 148c0 83 -66 150 -147 150c-77 0 -145 -66 -145 -150zM162 586h69c52 0 76 -22 76 -66
c0 -28 -10 -50 -30 -59l37 -94h-57l-27 83h-14v-83h-54v219zM216 546v-54h9c21 0 30 6 30 27s-9 27 -30 27h-9z" />
    <glyph glyph-name="macron" unicode="&#xaf;" horiz-adv-x="460" 
d="M130 651h212v-69h-212v69z" />
    <glyph glyph-name="degree" unicode="&#xb0;" horiz-adv-x="426" 
d="M212 677c86 0 149 -72 149 -149c0 -83 -69 -150 -148 -150c-78 0 -148 64 -148 150c0 85 71 149 147 149zM148 528c0 -40 27 -75 65 -75c39 0 65 36 65 75c0 40 -28 74 -65 74s-65 -34 -65 -74z" />
    <glyph glyph-name="plusminus" unicode="&#xb1;" horiz-adv-x="426" 
d="M159 515h108v-129h127v-106h-127v-128h-108v128h-127v106h127v129zM32 106h362v-106h-362v106z" />
    <glyph glyph-name="twosuperior" unicode="&#xb2;" horiz-adv-x="290" 
d="M147 673c72 0 120 -43 120 -115c0 -64 -37 -121 -144 -206h147l-6 -85h-243v84c117 109 145 154 145 210c0 21 -8 33 -24 33c-23 0 -33 -21 -35 -76l-87 19c9 93 52 136 127 136z" />
    <glyph glyph-name="threesuperior" unicode="&#xb3;" horiz-adv-x="290" 
d="M145 673c72 0 114 -39 114 -109c0 -44 -14 -69 -61 -87c50 -12 71 -43 71 -92c0 -83 -54 -125 -127 -125c-75 0 -120 41 -127 118l85 13c4 -37 15 -49 36 -49c23 0 34 10 34 46c0 32 -15 51 -48 51h-21v69h21c35 0 41 17 41 48c0 25 -9 39 -26 39c-16 0 -26 -12 -30 -40
l-83 17c16 69 58 101 121 101z" />
    <glyph glyph-name="acute" unicode="&#xb4;" horiz-adv-x="460" 
d="M165 583l137 131l57 -66l-154 -108z" />
    <glyph glyph-name="mu" unicode="&#xb5;" 
d="M35 493h128v-321c0 -52 9 -77 40 -77c32 0 40 26 40 77v321h128v-493h-114v69c-7 -57 -22 -76 -54 -76c-31 0 -47 20 -54 75v-235h-114v660z" />
    <glyph glyph-name="paragraph" unicode="&#xb6;" horiz-adv-x="426" 
d="M187 667h198v-834h-70v755h-49v-755h-70v425h-4c-128 0 -188 68 -188 207c0 114 50 202 183 202z" />
    <glyph glyph-name="periodcentered" unicode="&#xb7;" horiz-adv-x="222" 
d="M47 405h127v-146h-127v146z" />
    <glyph glyph-name="cedilla" unicode="&#xb8;" horiz-adv-x="460" 
d="M190 -84l27 84h39l-14 -48c3 0 11 1 17 1c47 0 73 -29 73 -70c0 -52 -41 -83 -93 -83c-27 0 -60 9 -83 25l13 40c25 -12 44 -16 57 -16c19 0 36 11 36 32c0 19 -12 37 -47 37c-5 0 -15 0 -25 -2z" />
    <glyph glyph-name="onesuperior" unicode="&#xb9;" horiz-adv-x="290" 
d="M127 671h75v-324h62v-80h-227v80h67v204c-19 -20 -43 -34 -67 -46v88c37 20 62 45 90 78z" />
    <glyph glyph-name="ordmasculine" unicode="&#xba;" horiz-adv-x="426" 
d="M213 677c83 0 127 -61 127 -169c0 -110 -39 -170 -132 -170c-98 0 -123 91 -123 171c0 103 43 168 128 168zM236 526c0 58 0 84 -23 84c-22 0 -24 -20 -24 -84c0 -98 0 -121 24 -121c23 0 23 23 23 121z" />
    <glyph glyph-name="guillemotright" unicode="&#xbb;" horiz-adv-x="375" 
d="M85 259l-49 172h61l89 -172l-89 -169h-61zM239 259l-50 172h62l88 -172l-88 -169h-62z" />
    <glyph glyph-name="onequarter" unicode="&#xbc;" horiz-adv-x="716" 
d="M127 671h75v-324h62v-80h-227v80h67v204c-19 -20 -43 -34 -67 -46v88c41 24 63 46 90 78zM455 667h75l-270 -667h-75zM545 404h90v-234h44v-76h-44v-94h-92v94h-126v72zM530 264l-50 -99h70v88c0 8 0 21 5 75c-7 -25 -12 -39 -25 -64z" />
    <glyph glyph-name="onehalf" unicode="&#xbd;" horiz-adv-x="716" 
d="M127 671h75v-324h62v-80h-227v80h67v204c-19 -20 -43 -34 -67 -46v88c37 20 62 45 90 78zM455 667h75l-269 -667h-75zM567 406c72 0 120 -43 120 -115c0 -64 -37 -121 -144 -206h147l-6 -85h-243v84c117 109 145 154 145 210c0 21 -8 33 -24 33c-23 0 -33 -21 -35 -76
l-87 19c9 93 52 136 127 136z" />
    <glyph glyph-name="threequarters" unicode="&#xbe;" horiz-adv-x="716" 
d="M477 667h75l-269 -667h-75zM556 404h90v-234h44v-76h-44v-94h-92v94h-126v72zM540 261l-49 -96h70v86c0 6 3 64 5 76c-3 -8 -9 -32 -26 -66zM167 673c72 0 114 -39 114 -109c0 -44 -14 -69 -61 -87c50 -12 71 -43 71 -92c0 -83 -54 -125 -127 -125
c-75 0 -120 41 -127 118l85 13c4 -37 15 -49 36 -49c23 0 34 10 34 46c0 32 -15 51 -48 51h-21v69h21c35 0 41 17 41 48c0 25 -9 39 -26 39c-16 0 -26 -12 -30 -40l-83 17c16 69 58 101 121 101z" />
    <glyph glyph-name="questiondown" unicode="&#xbf;" horiz-adv-x="426" 
d="M151 493h123v-144h-123v144zM161 302h111v-16c0 -88 -3 -115 -56 -166c-36 -35 -46 -66 -46 -110c0 -47 11 -75 47 -75c39 0 56 16 58 110l112 -18v-17c0 -139 -88 -194 -180 -194c-99 0 -170 67 -170 184c0 81 19 126 88 195c35 35 36 43 36 92v15z" />
    <glyph glyph-name="Agrave" unicode="&#xc0;" horiz-adv-x="426" 
d="M143 667h142l151 -667h-138l-27 144h-132l-26 -144h-123zM189 436l-36 -184h103l-37 178c-10 49 -12 71 -14 112c-3 -23 -10 -73 -16 -106zM277 708l-191 69l41 85l179 -97z" />
    <glyph glyph-name="Aacute" unicode="&#xc1;" horiz-adv-x="426" 
d="M143 667h142l151 -667h-138l-27 144h-132l-26 -144h-123zM189 436l-36 -184h103l-37 178c-10 49 -12 71 -14 112c-3 -23 -10 -73 -16 -106zM342 778l-191 -70l-29 57l180 97z" />
    <glyph glyph-name="Acircumflex" unicode="&#xc2;" horiz-adv-x="426" 
d="M143 667h142l151 -667h-138l-27 144h-132l-26 -144h-123zM189 436l-36 -184h103l-37 178c-10 49 -12 71 -14 112c-3 -23 -10 -73 -16 -106zM388 709h-93l-78 51l-80 -51h-93l173 153z" />
    <glyph glyph-name="Atilde" unicode="&#xc3;" horiz-adv-x="426" 
d="M143 667h142l151 -667h-138l-27 144h-132l-26 -144h-123zM189 436l-36 -184h103l-37 178c-10 49 -12 71 -14 112c-3 -23 -10 -73 -16 -106zM317 837l39 -34c-23 -53 -56 -85 -92 -85c-20 0 -42 10 -58 22s-42 28 -57 28c-17 0 -27 -14 -40 -34l-35 32c23 51 60 80 87 80
c14 0 34 -8 59 -24s45 -24 58 -24c12 0 22 6 39 39z" />
    <glyph glyph-name="Adieresis" unicode="&#xc4;" horiz-adv-x="426" 
d="M143 667h142l151 -667h-138l-27 144h-132l-26 -144h-123zM189 436l-36 -184h103l-37 178c-10 49 -12 71 -14 112c-3 -23 -10 -73 -16 -106zM140 720c-28 0 -55 22 -55 55c0 32 24 56 55 56s56 -24 56 -55c0 -33 -25 -56 -56 -56zM284 720c-29 0 -56 22 -56 55
c0 32 25 56 56 56s55 -24 55 -55c0 -33 -26 -56 -55 -56z" />
    <glyph glyph-name="Aring" unicode="&#xc5;" horiz-adv-x="426" 
d="M143 667h142l151 -667h-138l-27 144h-132l-26 -144h-123zM189 436l-36 -184h103l-37 178c-10 49 -12 71 -14 112c-3 -23 -10 -73 -16 -106zM214 690c-53 0 -96 42 -96 95c0 54 42 96 96 96s96 -41 96 -95c0 -53 -43 -96 -96 -96zM250 785c0 19 -17 36 -36 36
c-20 0 -36 -16 -36 -36c0 -19 17 -35 36 -35c20 0 36 15 36 35z" />
    <glyph glyph-name="AE" unicode="&#xc6;" horiz-adv-x="630" 
d="M209 667h410v-117h-213v-155h165v-111h-165v-167h213v-117h-341v153h-121l-49 -153h-115zM255 477l-65 -215h88v215c0 18 3 81 6 122c-3 -14 -25 -108 -29 -122z" />
    <glyph glyph-name="Ccedilla" unicode="&#xc7;" horiz-adv-x="460" 
d="M247 677c121 0 191 -73 199 -257l-121 -10c-2 104 -26 148 -75 148c-60 0 -75 -63 -75 -235c0 -170 17 -214 71 -214c56 0 70 34 79 133l116 -9c-9 -161 -76 -241 -191 -243l-11 -40c6 1 13 1 17 1c57 0 87 -35 87 -82c0 -55 -44 -92 -108 -92c-27 0 -66 10 -94 29l15 45
c21 -11 42 -19 66 -19s38 16 38 37c0 25 -18 42 -51 42c-9 0 -19 -1 -29 -2l26 83c-113 15 -176 129 -176 338c0 224 74 347 217 347z" />
    <glyph glyph-name="Egrave" unicode="&#xc8;" 
d="M51 667h347v-117h-210v-155h161v-111h-161v-167h210v-117h-347v667zM271 708l-191 69l41 85l179 -97z" />
    <glyph glyph-name="Eacute" unicode="&#xc9;" 
d="M51 667h347v-117h-210v-155h161v-111h-161v-167h210v-117h-347v667zM371 778l-191 -70l-29 57l180 97z" />
    <glyph glyph-name="Ecircumflex" unicode="&#xca;" 
d="M51 667h347v-117h-210v-155h161v-111h-161v-167h210v-117h-347v667zM398 709h-93l-78 51l-80 -51h-93l173 153z" />
    <glyph glyph-name="Edieresis" unicode="&#xcb;" 
d="M51 667h347v-117h-210v-155h161v-111h-161v-167h210v-117h-347v667zM156 720c-28 0 -55 22 -55 55c0 32 24 56 55 56s56 -24 56 -55c0 -33 -25 -56 -56 -56zM300 720c-29 0 -56 22 -56 55c0 32 25 56 56 56s55 -24 55 -55c0 -33 -26 -56 -55 -56z" />
    <glyph glyph-name="Igrave" unicode="&#xcc;" horiz-adv-x="239" 
d="M51 667h137v-667h-137v667zM151 708l-191 69l41 85l179 -97z" />
    <glyph glyph-name="Iacute" unicode="&#xcd;" horiz-adv-x="239" 
d="M51 667h137v-667h-137v667zM280 778l-191 -70l-29 57l180 97z" />
    <glyph glyph-name="Icircumflex" unicode="&#xce;" horiz-adv-x="239" 
d="M51 667h137v-667h-137v667zM291 709h-93l-78 51l-80 -51h-93l173 153z" />
    <glyph glyph-name="Idieresis" unicode="&#xcf;" horiz-adv-x="239" 
d="M51 667h137v-667h-137v667zM48 720c-28 0 -55 22 -55 55c0 32 24 56 55 56s56 -24 56 -55c0 -33 -25 -56 -56 -56zM192 720c-29 0 -56 22 -56 55c0 32 25 56 56 56s55 -24 55 -55c0 -33 -26 -56 -55 -56z" />
    <glyph glyph-name="Eth" unicode="&#xd0;" horiz-adv-x="494" 
d="M51 667h161c224 0 252 -188 252 -326c0 -214 -77 -341 -226 -341h-187v298h-47v93h47v276zM185 551v-160h78v-93h-78v-181h40c25 0 47 6 61 18c29 24 33 118 33 196c0 147 -14 220 -85 220h-49z" />
    <glyph glyph-name="Ntilde" unicode="&#xd1;" horiz-adv-x="477" 
d="M51 667h134l103 -291c6 -17 20 -61 37 -146c-8 112 -10 169 -10 197v240h111v-667h-111l-125 341c-13 36 -26 79 -39 136c9 -101 11 -179 11 -193v-284h-111v667zM342 837l39 -34c-23 -53 -56 -85 -92 -85c-20 0 -42 10 -58 22s-42 28 -57 28c-17 0 -27 -14 -40 -34
l-35 32c23 51 60 80 87 80c14 0 34 -8 59 -24s45 -24 58 -24c12 0 22 6 39 39z" />
    <glyph glyph-name="Ograve" unicode="&#xd2;" horiz-adv-x="477" 
d="M240 677c140 0 207 -107 207 -348c0 -239 -69 -339 -210 -339c-148 0 -207 122 -207 351c0 233 70 336 210 336zM175 327c0 -151 7 -218 65 -218c53 0 62 37 62 226c0 167 -7 223 -65 223c-62 0 -62 -105 -62 -231zM280 708l-191 69l41 85l179 -97z" />
    <glyph glyph-name="Oacute" unicode="&#xd3;" horiz-adv-x="477" 
d="M240 677c140 0 207 -107 207 -348c0 -239 -69 -339 -210 -339c-148 0 -207 122 -207 351c0 233 70 336 210 336zM175 327c0 -151 7 -218 65 -218c53 0 62 37 62 226c0 167 -7 223 -65 223c-62 0 -62 -105 -62 -231zM392 778l-191 -70l-29 57l180 97z" />
    <glyph glyph-name="Ocircumflex" unicode="&#xd4;" horiz-adv-x="477" 
d="M240 677c140 0 207 -107 207 -348c0 -239 -69 -339 -210 -339c-148 0 -207 122 -207 351c0 233 70 336 210 336zM175 327c0 -151 7 -218 65 -218c53 0 62 37 62 226c0 167 -7 223 -65 223c-62 0 -62 -105 -62 -231zM410 709h-93l-78 51l-80 -51h-93l173 153z" />
    <glyph glyph-name="Otilde" unicode="&#xd5;" horiz-adv-x="477" 
d="M240 677c140 0 207 -107 207 -348c0 -239 -69 -339 -210 -339c-148 0 -207 122 -207 351c0 233 70 336 210 336zM175 327c0 -151 7 -218 65 -218c53 0 62 37 62 226c0 167 -7 223 -65 223c-62 0 -62 -105 -62 -231zM340 837l39 -34c-23 -53 -56 -85 -92 -85
c-20 0 -42 10 -58 22s-42 28 -57 28c-17 0 -27 -14 -40 -34l-35 32c23 51 60 80 87 80c14 0 34 -8 59 -24s45 -24 58 -24c12 0 22 6 39 39z" />
    <glyph glyph-name="Odieresis" unicode="&#xd6;" horiz-adv-x="477" 
d="M240 677c140 0 207 -107 207 -348c0 -239 -69 -339 -210 -339c-148 0 -207 122 -207 351c0 233 70 336 210 336zM175 327c0 -151 7 -218 65 -218c53 0 62 37 62 226c0 167 -7 223 -65 223c-62 0 -62 -105 -62 -231zM166 720c-28 0 -55 22 -55 55c0 32 24 56 55 56
s56 -24 56 -55c0 -33 -25 -56 -56 -56zM310 720c-29 0 -56 22 -56 55c0 32 25 56 56 56s55 -24 55 -55c0 -33 -26 -56 -55 -56z" />
    <glyph glyph-name="multiply" unicode="&#xd7;" horiz-adv-x="426" 
d="M39 431l78 78l98 -99l97 97l74 -75l-98 -97l99 -99l-78 -78l-100 99l-94 -97l-75 74l98 98z" />
    <glyph glyph-name="Oslash" unicode="&#xd8;" horiz-adv-x="477" 
d="M331 657l18 48h61l-33 -86c52 -61 70 -165 70 -290c0 -236 -66 -339 -211 -339c-35 0 -60 6 -89 19l-19 -50h-61l33 87c-49 59 -70 147 -70 288c0 240 69 343 209 343c35 0 60 -5 92 -20zM163 333c0 -52 2 -90 6 -127l116 339c-11 15 -26 19 -47 19
c-62 0 -75 -61 -75 -231zM310 462l-116 -342c12 -15 31 -17 51 -17c69 0 69 80 69 240c0 48 -1 82 -4 119z" />
    <glyph glyph-name="Ugrave" unicode="&#xd9;" horiz-adv-x="477" 
d="M45 667h137v-441c0 -87 20 -114 68 -114c42 0 66 18 66 118v437h116v-440c0 -176 -64 -237 -191 -237c-149 0 -196 72 -196 241v436zM267 708l-191 69l41 85l179 -97z" />
    <glyph glyph-name="Uacute" unicode="&#xda;" horiz-adv-x="477" 
d="M45 667h137v-441c0 -87 20 -114 68 -114c42 0 66 18 66 118v437h116v-440c0 -176 -64 -237 -191 -237c-149 0 -196 72 -196 241v436zM404 778l-191 -70l-29 57l180 97z" />
    <glyph glyph-name="Ucircumflex" unicode="&#xdb;" horiz-adv-x="477" 
d="M45 667h137v-441c0 -87 20 -114 68 -114c42 0 66 18 66 118v437h116v-440c0 -176 -64 -237 -191 -237c-149 0 -196 72 -196 241v436zM410 709h-93l-78 51l-80 -51h-93l173 153z" />
    <glyph glyph-name="Udieresis" unicode="&#xdc;" horiz-adv-x="477" 
d="M45 667h137v-441c0 -87 20 -114 68 -114c42 0 66 18 66 118v437h116v-440c0 -176 -64 -237 -191 -237c-149 0 -196 72 -196 241v436zM165 720c-28 0 -55 22 -55 55c0 32 24 56 55 56s56 -24 56 -55c0 -33 -25 -56 -56 -56zM309 720c-29 0 -56 22 -56 55c0 32 25 56 56 56
s55 -24 55 -55c0 -33 -26 -56 -55 -56z" />
    <glyph glyph-name="Yacute" unicode="&#xdd;" 
d="M-6 667h144l52 -190c19 -68 16 -74 18 -127c6 54 6 68 27 138l54 179h123l-148 -393v-274h-137v274zM392 778l-191 -70l-29 57l180 97z" />
    <glyph glyph-name="Thorn" unicode="&#xde;" horiz-adv-x="443" 
d="M220 466h-35v-199h37c53 0 67 34 67 102s-24 97 -69 97zM250 156h-65v-156h-134v667h134v-91h69c139 0 177 -114 177 -212c0 -124 -55 -208 -181 -208z" />
    <glyph glyph-name="germandbls" unicode="&#xdf;" horiz-adv-x="460" 
d="M249 709c110 0 160 -81 160 -162c0 -66 -37 -124 -114 -139c0 -21 17 -37 65 -70c73 -50 91 -95 91 -159c0 -113 -56 -189 -161 -189c-39 0 -70 11 -87 20l27 94c19 -8 36 -13 55 -13c32 0 47 24 47 68c0 43 -15 65 -64 98c-48 32 -63 60 -63 112c0 31 6 69 27 104
c44 7 57 29 57 69c0 45 -19 69 -55 69c-44 0 -62 -28 -62 -117v-551h-124v399h-52v106h52v34c0 148 83 227 201 227z" />
    <glyph glyph-name="agrave" unicode="&#xe0;" horiz-adv-x="375" 
d="M187 503c47 0 90 -15 117 -42s36 -58 36 -139v-266c0 -16 1 -36 6 -56h-113c-7 15 -8 26 -8 46v15c-25 -46 -65 -71 -104 -71c-61 0 -106 47 -106 138c0 86 47 165 178 176l24 2c0 80 -6 104 -34 104c-25 0 -39 -24 -42 -73l-112 13c13 104 70 153 158 153zM143 140
c0 -35 7 -61 32 -61c31 0 42 26 42 107v51c-48 -9 -74 -30 -74 -97zM124 714l137 -131l-40 -43l-154 108z" />
    <glyph glyph-name="aacute" unicode="&#xe1;" horiz-adv-x="375" 
d="M187 503c47 0 90 -15 117 -42s36 -58 36 -139v-266c0 -16 1 -36 6 -56h-113c-7 15 -8 26 -8 46v15c-25 -46 -65 -71 -104 -71c-61 0 -106 47 -106 138c0 86 47 165 178 176l24 2c0 80 -6 104 -34 104c-25 0 -39 -24 -42 -73l-112 13c13 104 70 153 158 153zM143 140
c0 -35 7 -61 32 -61c31 0 42 26 42 107v51c-48 -9 -74 -30 -74 -97zM123 583l137 131l57 -66l-154 -108z" />
    <glyph glyph-name="acircumflex" unicode="&#xe2;" horiz-adv-x="375" 
d="M187 503c47 0 90 -15 117 -42s36 -58 36 -139v-266c0 -16 1 -36 6 -56h-113c-7 15 -8 26 -8 46v15c-25 -46 -65 -71 -104 -71c-61 0 -106 47 -106 138c0 86 47 165 178 176l24 2c0 80 -6 104 -34 104c-25 0 -39 -24 -42 -73l-112 13c13 104 70 153 158 153zM143 140
c0 -35 7 -61 32 -61c31 0 42 26 42 107v51c-48 -9 -74 -30 -74 -97zM44 555l149 143l147 -143h-87l-60 48l-63 -48h-86z" />
    <glyph glyph-name="atilde" unicode="&#xe3;" horiz-adv-x="375" 
d="M187 503c47 0 90 -15 117 -42s36 -58 36 -139v-266c0 -16 1 -36 6 -56h-113c-7 15 -8 26 -8 46v15c-25 -46 -65 -71 -104 -71c-61 0 -106 47 -106 138c0 86 47 165 178 176l24 2c0 80 -6 104 -34 104c-25 0 -39 -24 -42 -73l-112 13c13 104 70 153 158 153zM143 140
c0 -35 7 -61 32 -61c31 0 42 26 42 107v51c-48 -9 -74 -30 -74 -97zM143 677c30 0 81 -44 105 -44c12 0 20 3 39 37l35 -30c-25 -52 -51 -76 -87 -76c-38 0 -80 44 -103 44c-15 0 -25 -10 -38 -30l-33 30c25 44 52 69 82 69z" />
    <glyph glyph-name="adieresis" unicode="&#xe4;" horiz-adv-x="375" 
d="M187 503c47 0 90 -15 117 -42s36 -58 36 -139v-266c0 -16 1 -36 6 -56h-113c-7 15 -8 26 -8 46v15c-25 -46 -65 -71 -104 -71c-61 0 -106 47 -106 138c0 86 47 165 178 176l24 2c0 80 -6 104 -34 104c-25 0 -39 -24 -42 -73l-112 13c13 104 70 153 158 153zM143 140
c0 -35 7 -61 32 -61c31 0 42 26 42 107v51c-48 -9 -74 -30 -74 -97zM127 672c28 0 51 -23 51 -51s-21 -52 -51 -52c-29 0 -52 23 -52 52s23 51 52 51zM263 672c27 0 51 -23 51 -51c0 -29 -22 -52 -51 -52s-52 23 -52 52c0 28 23 51 52 51z" />
    <glyph glyph-name="aring" unicode="&#xe5;" horiz-adv-x="375" 
d="M187 503c47 0 90 -15 117 -42s36 -58 36 -139v-266c0 -16 1 -36 6 -56h-113c-7 15 -8 26 -8 46v15c-25 -46 -65 -71 -104 -71c-61 0 -106 47 -106 138c0 86 47 165 178 176l24 2c0 80 -6 104 -34 104c-25 0 -39 -24 -42 -73l-112 13c13 104 70 153 158 153zM143 140
c0 -35 7 -61 32 -61c31 0 42 26 42 107v51c-48 -9 -74 -30 -74 -97zM191 726c54 0 96 -43 96 -95c0 -56 -45 -96 -96 -96c-50 0 -96 40 -96 96c0 52 42 95 96 95zM154 631c0 -22 20 -37 37 -37s37 13 37 36c0 21 -17 37 -38 37c-19 0 -36 -17 -36 -36z" />
    <glyph glyph-name="ae" unicode="&#xe6;" horiz-adv-x="579" 
d="M187 503c48 0 83 -17 106 -56c40 45 67 56 112 56c34 0 67 -10 92 -31c50 -42 73 -104 73 -233v-14h-217c0 -84 8 -136 51 -136c40 0 47 24 55 81l106 -9c-9 -111 -68 -171 -163 -171c-63 0 -98 22 -125 79c-31 -52 -70 -79 -142 -79c-80 0 -120 49 -120 138
c0 83 44 164 182 177c8 1 21 2 25 2c0 79 -6 103 -35 103c-27 0 -41 -25 -44 -73l-113 13c4 94 76 153 157 153zM352 306h98c-1 71 -11 107 -47 107c-33 0 -50 -40 -51 -107zM143 141c0 -41 12 -61 36 -61c20 0 43 7 43 96v62c-47 -7 -79 -28 -79 -97z" />
    <glyph glyph-name="ccedilla" unicode="&#xe7;" horiz-adv-x="375" 
d="M198 503c105 0 162 -68 166 -188l-115 -7c-3 79 -16 102 -48 102c-36 0 -48 -30 -48 -157c0 -102 1 -164 47 -164c41 0 49 37 55 104l108 -9c-3 -150 -82 -192 -160 -194l-11 -38c3 0 11 1 17 1c47 0 73 -29 73 -70c0 -52 -41 -83 -93 -83c-27 0 -60 9 -83 25l13 40
c25 -12 44 -16 57 -16c19 0 36 11 36 32c0 19 -12 37 -47 37c-5 0 -15 0 -25 -2l24 77c-95 8 -144 105 -144 251c0 143 51 259 178 259z" />
    <glyph glyph-name="egrave" unicode="&#xe8;" horiz-adv-x="375" 
d="M197 503c130 0 168 -118 168 -249v-29h-217v-25c0 -85 17 -111 54 -111c32 0 46 21 53 81l105 -9c-8 -108 -67 -171 -162 -171c-117 0 -178 82 -178 253c0 168 62 260 177 260zM147 306h99c-1 76 -14 107 -46 107c-31 0 -50 -27 -53 -107zM133 714l137 -131l-40 -43
l-154 108z" />
    <glyph glyph-name="eacute" unicode="&#xe9;" horiz-adv-x="375" 
d="M197 503c130 0 168 -118 168 -249v-29h-217v-25c0 -85 17 -111 54 -111c32 0 46 21 53 81l105 -9c-8 -108 -67 -171 -162 -171c-117 0 -178 82 -178 253c0 168 62 260 177 260zM147 306h99c-1 76 -14 107 -46 107c-31 0 -50 -27 -53 -107zM126 583l137 131l57 -66
l-154 -108z" />
    <glyph glyph-name="ecircumflex" unicode="&#xea;" horiz-adv-x="375" 
d="M197 503c130 0 168 -118 168 -249v-29h-217v-25c0 -85 17 -111 54 -111c32 0 46 21 53 81l105 -9c-8 -108 -67 -171 -162 -171c-117 0 -178 82 -178 253c0 168 62 260 177 260zM147 306h99c-1 76 -14 107 -46 107c-31 0 -50 -27 -53 -107zM53 555l149 143l147 -143h-87
l-60 48l-63 -48h-86z" />
    <glyph glyph-name="edieresis" unicode="&#xeb;" horiz-adv-x="375" 
d="M197 503c130 0 168 -118 168 -249v-29h-217v-25c0 -85 17 -111 54 -111c32 0 46 21 53 81l105 -9c-8 -108 -67 -171 -162 -171c-117 0 -178 82 -178 253c0 168 62 260 177 260zM147 306h99c-1 76 -14 107 -46 107c-31 0 -50 -27 -53 -107zM134 672c28 0 51 -23 51 -51
s-21 -52 -51 -52c-29 0 -52 23 -52 52s23 51 52 51zM270 672c27 0 51 -23 51 -51c0 -29 -22 -52 -51 -52s-52 23 -52 52c0 28 23 51 52 51z" />
    <glyph glyph-name="igrave" unicode="&#xec;" horiz-adv-x="204" 
d="M38 493h128v-493h-128v493zM23 714l137 -131l-40 -43l-154 108z" />
    <glyph glyph-name="iacute" unicode="&#xed;" horiz-adv-x="204" 
d="M38 493h128v-493h-128v493zM47 583l137 131l57 -66l-154 -108z" />
    <glyph glyph-name="icircumflex" unicode="&#xee;" horiz-adv-x="204" 
d="M38 493h128v-493h-128v493zM-44 555l149 143l147 -143h-87l-60 48l-63 -48h-86z" />
    <glyph glyph-name="idieresis" unicode="&#xef;" horiz-adv-x="204" 
d="M38 493h128v-493h-128v493zM37 672c28 0 51 -23 51 -51s-21 -52 -51 -52c-29 0 -52 23 -52 52s23 51 52 51zM173 672c27 0 51 -23 51 -51c0 -29 -22 -52 -51 -52s-52 23 -52 52c0 28 23 51 52 51z" />
    <glyph glyph-name="eth" unicode="&#xf0;" horiz-adv-x="392" 
d="M222 673l95 55l34 -57l-94 -54c79 -136 114 -252 114 -376c0 -121 -34 -251 -179 -251c-128 0 -172 116 -172 262c0 156 59 251 155 251c16 0 32 -3 41 -7c-4 17 -14 45 -30 80l-95 -55l-34 57l102 59c-7 16 -15 33 -24 49l56 35zM153 263c0 -148 2 -183 42 -183
s43 39 43 171c0 142 -8 162 -43 162c-34 0 -42 -20 -42 -150z" />
    <glyph glyph-name="ntilde" unicode="&#xf1;" 
d="M263 503c73 0 111 -33 111 -138v-365h-128v341c0 47 -12 57 -39 57s-41 -14 -41 -59v-339h-128v493h114v-73c25 60 58 83 111 83zM158 677c30 0 81 -44 105 -44c12 0 20 3 39 37l35 -30c-25 -52 -51 -76 -87 -76c-38 0 -80 44 -103 44c-15 0 -25 -10 -38 -30l-33 30
c25 44 52 69 82 69z" />
    <glyph glyph-name="ograve" unicode="&#xf2;" horiz-adv-x="392" 
d="M196 503c116 0 175 -95 175 -255c0 -169 -60 -258 -178 -258c-133 0 -173 123 -173 265c0 152 60 248 176 248zM153 249c0 -117 1 -169 42 -169c43 0 43 53 43 171s-1 162 -41 162c-44 0 -44 -44 -44 -164zM130 714l137 -131l-40 -43l-154 108z" />
    <glyph glyph-name="oacute" unicode="&#xf3;" horiz-adv-x="392" 
d="M196 503c116 0 175 -95 175 -255c0 -169 -60 -258 -178 -258c-133 0 -173 123 -173 265c0 152 60 248 176 248zM153 249c0 -117 1 -169 42 -169c43 0 43 53 43 171s-1 162 -41 162c-44 0 -44 -44 -44 -164zM124 583l137 131l57 -66l-154 -108z" />
    <glyph glyph-name="ocircumflex" unicode="&#xf4;" horiz-adv-x="392" 
d="M196 503c116 0 175 -95 175 -255c0 -169 -60 -258 -178 -258c-133 0 -173 123 -173 265c0 152 60 248 176 248zM153 249c0 -117 1 -169 42 -169c43 0 43 53 43 171s-1 162 -41 162c-44 0 -44 -44 -44 -164zM49 555l149 143l147 -143h-87l-60 48l-63 -48h-86z" />
    <glyph glyph-name="otilde" unicode="&#xf5;" horiz-adv-x="392" 
d="M196 503c116 0 175 -95 175 -255c0 -169 -60 -258 -178 -258c-133 0 -173 123 -173 265c0 152 60 248 176 248zM153 249c0 -117 1 -169 42 -169c43 0 43 53 43 171s-1 162 -41 162c-44 0 -44 -44 -44 -164zM148 677c30 0 81 -44 105 -44c12 0 20 3 39 37l35 -30
c-25 -52 -51 -76 -87 -76c-38 0 -80 44 -103 44c-15 0 -25 -10 -38 -30l-33 30c25 44 52 69 82 69z" />
    <glyph glyph-name="odieresis" unicode="&#xf6;" horiz-adv-x="392" 
d="M196 503c116 0 175 -95 175 -255c0 -169 -60 -258 -178 -258c-133 0 -173 123 -173 265c0 152 60 248 176 248zM153 249c0 -117 1 -169 42 -169c43 0 43 53 43 171s-1 162 -41 162c-44 0 -44 -44 -44 -164zM129 672c28 0 51 -23 51 -51s-21 -52 -51 -52
c-29 0 -52 23 -52 52s23 51 52 51zM265 672c27 0 51 -23 51 -51c0 -29 -22 -52 -51 -52s-52 23 -52 52c0 28 23 51 52 51z" />
    <glyph glyph-name="divide" unicode="&#xf7;" horiz-adv-x="426" 
d="M155 565h116v-132h-116v132zM32 387h362v-106h-362v106zM155 235h116v-132h-116v132z" />
    <glyph glyph-name="oslash" unicode="&#xf8;" horiz-adv-x="392" 
d="M263 490l21 54h55l-32 -83c47 -49 64 -126 64 -214c0 -168 -60 -257 -175 -257c-21 0 -44 2 -67 11l-22 -58h-55l33 86c-47 49 -65 138 -65 220c0 161 61 254 176 254c24 0 47 -4 67 -13zM143 306c0 -75 0 -108 1 -123l1 -24l86 246c-9 9 -18 14 -37 14
c-31 0 -51 -17 -51 -113zM246 327l-84 -242c9 -6 16 -11 33 -11c38 0 53 16 53 145c0 59 -1 95 -2 108z" />
    <glyph glyph-name="ugrave" unicode="&#xf9;" 
d="M35 493h128v-343c0 -40 12 -55 37 -55c36 0 43 20 43 76v322h128v-493h-114v70c-27 -57 -60 -80 -109 -80c-65 0 -113 22 -113 140v363zM123 714l137 -131l-40 -43l-154 108z" />
    <glyph glyph-name="uacute" unicode="&#xfa;" 
d="M35 493h128v-343c0 -40 12 -55 37 -55c36 0 43 20 43 76v322h128v-493h-114v70c-27 -57 -60 -80 -109 -80c-65 0 -113 22 -113 140v363zM150 583l137 131l57 -66l-154 -108z" />
    <glyph glyph-name="ucircumflex" unicode="&#xfb;" 
d="M35 493h128v-343c0 -40 12 -55 37 -55c36 0 43 20 43 76v322h128v-493h-114v70c-27 -57 -60 -80 -109 -80c-65 0 -113 22 -113 140v363zM57 555l149 143l147 -143h-87l-60 48l-63 -48h-86z" />
    <glyph glyph-name="udieresis" unicode="&#xfc;" 
d="M35 493h128v-343c0 -40 12 -55 37 -55c36 0 43 20 43 76v322h128v-493h-114v70c-27 -57 -60 -80 -109 -80c-65 0 -113 22 -113 140v363zM138 672c28 0 51 -23 51 -51s-21 -52 -51 -52c-29 0 -52 23 -52 52s23 51 52 51zM274 672c27 0 51 -23 51 -51
c0 -29 -22 -52 -51 -52s-52 23 -52 52c0 28 23 51 52 51z" />
    <glyph glyph-name="yacute" unicode="&#xfd;" horiz-adv-x="324" 
d="M-3 493h128l37 -177c5 -24 9 -65 14 -148c7 66 10 122 21 179l28 146h104l-125 -505c-12 -47 -22 -80 -31 -97c-18 -35 -59 -60 -109 -60c-17 0 -32 3 -49 7v103c15 -4 29 -6 38 -6c44 0 56 34 56 109zM124 583l137 131l57 -66l-154 -108z" />
    <glyph glyph-name="thorn" unicode="&#xfe;" horiz-adv-x="392" 
d="M240 499c86 0 131 -95 131 -243c0 -107 -21 -262 -128 -262c-32 0 -56 9 -80 40v-201h-125v834h125v-220c22 39 48 52 77 52zM163 348v-190c0 -64 12 -74 33 -74c36 0 42 41 42 188c0 119 -18 133 -42 133c-23 0 -33 -21 -33 -57z" />
    <glyph glyph-name="ydieresis" unicode="&#xff;" horiz-adv-x="324" 
d="M-3 493h128l37 -177c5 -24 9 -65 14 -148c7 66 10 122 21 179l28 146h104l-125 -505c-12 -47 -22 -80 -31 -97c-18 -35 -59 -60 -109 -60c-17 0 -32 3 -49 7v103c15 -4 29 -6 38 -6c44 0 56 34 56 109zM109 672c28 0 51 -23 51 -51s-21 -52 -51 -52c-29 0 -52 23 -52 52
s23 51 52 51zM245 672c27 0 51 -23 51 -51c0 -29 -22 -52 -51 -52s-52 23 -52 52c0 28 23 51 52 51z" />
    <glyph glyph-name="Amacron" unicode="&#x100;" horiz-adv-x="426" 
d="M143 667h142l151 -667h-138l-27 144h-132l-26 -144h-123zM189 436l-36 -184h103l-37 178c-10 49 -12 71 -14 112c-3 -23 -10 -73 -16 -106zM321 736h-212v69h212v-69z" />
    <glyph glyph-name="amacron" unicode="&#x101;" horiz-adv-x="375" 
d="M187 503c47 0 90 -15 117 -42s36 -58 36 -139v-266c0 -16 1 -36 6 -56h-113c-7 15 -8 26 -8 46v15c-25 -46 -65 -71 -104 -71c-61 0 -106 47 -106 138c0 86 47 165 178 176l24 2c0 80 -6 104 -34 104c-25 0 -39 -24 -42 -73l-112 13c13 104 70 153 158 153zM143 140
c0 -35 7 -61 32 -61c31 0 42 26 42 107v51c-48 -9 -74 -30 -74 -97zM83 651h212v-69h-212v69z" />
    <glyph glyph-name="Abreve" unicode="&#x102;" horiz-adv-x="426" 
d="M143 667h142l151 -667h-138l-27 144h-132l-26 -144h-123zM189 436l-36 -184h103l-37 178c-10 49 -12 71 -14 112c-3 -23 -10 -73 -16 -106zM279 828h61c-19 -72 -61 -107 -126 -107c-67 0 -110 35 -127 107h61c12 -25 29 -39 66 -39c29 0 52 8 65 39z" />
    <glyph glyph-name="abreve" unicode="&#x103;" horiz-adv-x="375" 
d="M187 503c47 0 90 -15 117 -42s36 -58 36 -139v-266c0 -16 1 -36 6 -56h-113c-7 15 -8 26 -8 46v15c-25 -46 -65 -71 -104 -71c-61 0 -106 47 -106 138c0 86 47 165 178 176l24 2c0 80 -6 104 -34 104c-25 0 -39 -24 -42 -73l-112 13c13 104 70 153 158 153zM143 140
c0 -35 7 -61 32 -61c31 0 42 26 42 107v51c-48 -9 -74 -30 -74 -97zM65 674h61c10 -27 35 -39 66 -39c32 0 50 7 65 39h61c-18 -73 -62 -107 -126 -107c-68 0 -112 38 -127 107z" />
    <glyph glyph-name="Aogonek" unicode="&#x104;" horiz-adv-x="426" 
d="M389 -128l9 -39c-27 -11 -51 -11 -63 -11c-67 0 -109 35 -109 83c0 36 27 71 72 95l-27 144h-132l-26 -144h-123l153 667h142l151 -667h-94c-19 -20 -43 -44 -43 -81s24 -51 55 -51c13 0 23 1 35 4zM256 252l-37 178c-10 48 -13 70 -14 110c-3 -24 -10 -72 -16 -104
l-36 -184h103z" />
    <glyph glyph-name="aogonek" unicode="&#x105;" horiz-adv-x="375" 
d="M324 -128l9 -39c-21 -8 -41 -11 -63 -11c-51 0 -109 24 -109 83c0 43 37 76 72 95c-7 15 -8 26 -8 46v15c-25 -46 -65 -71 -104 -71c-61 0 -106 47 -106 138c0 86 47 165 178 176l24 2c0 80 -6 104 -34 104c-25 0 -39 -24 -42 -73l-112 13c13 104 70 153 158 153
c47 0 91 -15 118 -42s35 -59 35 -140v-265c0 -16 1 -36 6 -56h-69c-22 -24 -43 -46 -43 -81s22 -51 55 -51c12 0 24 1 35 4zM217 187v50c-48 -9 -74 -30 -74 -97c0 -35 7 -61 32 -61c31 0 42 27 42 108z" />
    <glyph glyph-name="Cacute" unicode="&#x106;" horiz-adv-x="460" 
d="M247 677c121 0 191 -73 199 -257l-121 -10c-2 104 -26 148 -75 148c-60 0 -75 -63 -75 -235c0 -170 17 -214 71 -214c56 0 70 34 79 133l116 -9c-9 -164 -79 -243 -198 -243c-144 0 -213 113 -213 340c0 224 74 347 217 347zM409 778l-191 -70l-29 57l180 97z" />
    <glyph glyph-name="cacute" unicode="&#x107;" horiz-adv-x="375" 
d="M198 503c105 0 162 -68 166 -188l-115 -7c-3 79 -16 102 -48 102c-36 0 -48 -30 -48 -157c0 -102 1 -164 47 -164c41 0 49 37 55 104l108 -9c-3 -152 -85 -194 -164 -194c-121 0 -179 87 -179 254c0 143 51 259 178 259zM140 583l137 131l57 -66l-154 -108z" />
    <glyph glyph-name="Ccircumflex" unicode="&#x108;" horiz-adv-x="460" 
d="M247 677c121 0 191 -73 199 -257l-121 -10c-2 104 -26 148 -75 148c-60 0 -75 -63 -75 -235c0 -170 17 -214 71 -214c56 0 70 34 79 133l116 -9c-9 -164 -79 -243 -198 -243c-144 0 -213 113 -213 340c0 224 74 347 217 347zM421 709h-93l-78 51l-80 -51h-93l173 153z
" />
    <glyph glyph-name="ccircumflex" unicode="&#x109;" horiz-adv-x="375" 
d="M198 503c105 0 162 -68 166 -188l-115 -7c-3 79 -16 102 -48 102c-36 0 -48 -30 -48 -157c0 -102 1 -164 47 -164c41 0 49 37 55 104l108 -9c-3 -152 -85 -194 -164 -194c-121 0 -179 87 -179 254c0 143 51 259 178 259zM55 555l149 143l147 -143h-87l-60 48l-63 -48h-86
z" />
    <glyph glyph-name="Cdotaccent" unicode="&#x10a;" horiz-adv-x="460" 
d="M247 677c121 0 191 -73 199 -257l-121 -10c-2 104 -26 148 -75 148c-60 0 -75 -63 -75 -235c0 -170 17 -214 71 -214c56 0 70 34 79 133l116 -9c-9 -164 -79 -243 -198 -243c-144 0 -213 113 -213 340c0 224 74 347 217 347zM249 715c-31 0 -59 24 -59 59
c0 33 26 59 59 59s59 -26 59 -59c0 -35 -28 -59 -59 -59z" />
    <glyph glyph-name="cdotaccent" unicode="&#x10b;" horiz-adv-x="375" 
d="M198 503c105 0 162 -68 166 -188l-115 -7c-3 79 -16 102 -48 102c-36 0 -48 -30 -48 -157c0 -102 1 -164 47 -164c41 0 49 37 55 104l108 -9c-3 -152 -85 -194 -164 -194c-121 0 -179 87 -179 254c0 143 51 259 178 259zM200 679c34 0 59 -27 59 -59
c0 -33 -26 -59 -59 -59c-31 0 -59 24 -59 59c0 32 26 59 59 59z" />
    <glyph glyph-name="Ccaron" unicode="&#x10c;" horiz-adv-x="460" 
d="M247 677c121 0 191 -73 199 -257l-121 -10c-2 104 -26 148 -75 148c-60 0 -75 -63 -75 -235c0 -170 17 -214 71 -214c56 0 70 34 79 133l116 -9c-9 -164 -79 -243 -198 -243c-144 0 -213 113 -213 340c0 224 74 347 217 347zM419 855l-171 -153l-173 153h93l80 -51l78 51
h93z" />
    <glyph glyph-name="ccaron" unicode="&#x10d;" horiz-adv-x="375" 
d="M198 503c105 0 162 -68 166 -188l-115 -7c-3 79 -16 102 -48 102c-36 0 -48 -30 -48 -157c0 -102 1 -164 47 -164c41 0 49 37 55 104l108 -9c-3 -152 -85 -194 -164 -194c-121 0 -179 87 -179 254c0 143 51 259 178 259zM52 692h86l63 -48l60 48h87l-147 -144z" />
    <glyph glyph-name="Dcaron" unicode="&#x10e;" horiz-adv-x="494" 
d="M51 667h161c224 0 252 -188 252 -326c0 -214 -77 -341 -226 -341h-187v667zM185 551v-434h40c25 0 47 6 61 18c29 24 33 118 33 196c0 147 -14 220 -85 220h-49zM404 855l-171 -153l-173 153h93l80 -51l78 51h93z" />
    <glyph glyph-name="dcaron" unicode="&#x10f;" horiz-adv-x="493" 
d="M229 667h125v-667h-112v72c-24 -59 -55 -78 -94 -78c-84 0 -128 83 -128 249c0 170 53 256 133 256c31 0 55 -13 76 -42v210zM153 247c0 -123 3 -163 40 -163c27 0 36 25 36 90v180c0 37 -12 52 -35 52c-9 0 -18 -3 -24 -11c-13 -17 -17 -46 -17 -148zM442 463h-57
l20 205h88c-23 -92 -38 -146 -51 -205z" />
    <glyph glyph-name="Dcroat" unicode="&#x110;" horiz-adv-x="494" 
d="M51 667h161c224 0 252 -188 252 -326c0 -214 -77 -341 -226 -341h-187v298h-47v93h47v276zM185 551v-160h78v-93h-78v-181h40c25 0 47 6 61 18c29 24 33 118 33 196c0 147 -14 220 -85 220h-49z" />
    <glyph glyph-name="dcroat" unicode="&#x111;" horiz-adv-x="422" 
d="M354 0h-112v72c-17 -44 -43 -78 -94 -78c-118 0 -128 165 -128 249s16 256 133 256c38 0 53 -13 76 -42v78h-69v69h69v63h125v-63h64v-69h-64v-535zM229 174v180c0 37 -12 52 -35 52c-9 0 -18 -3 -24 -11c-13 -17 -17 -46 -17 -148c0 -123 3 -163 40 -163
c27 0 36 25 36 90z" />
    <glyph glyph-name="Emacron" unicode="&#x112;" 
d="M51 667h347v-117h-210v-155h161v-111h-161v-167h210v-117h-347v667zM333 736h-212v69h212v-69z" />
    <glyph glyph-name="emacron" unicode="&#x113;" horiz-adv-x="375" 
d="M197 503c130 0 168 -118 168 -249v-29h-217v-25c0 -85 17 -111 54 -111c32 0 46 21 53 81l105 -9c-8 -108 -67 -171 -162 -171c-117 0 -178 82 -178 253c0 168 62 260 177 260zM147 306h99c-1 76 -14 107 -46 107c-31 0 -50 -27 -53 -107zM93 651h212v-69h-212v69z" />
    <glyph glyph-name="Ebreve" unicode="&#x114;" 
d="M51 667h347v-117h-210v-155h161v-111h-161v-167h210v-117h-347v667zM291 828h61c-19 -72 -61 -107 -126 -107c-67 0 -110 35 -127 107h61c12 -25 29 -39 66 -39c29 0 52 8 65 39z" />
    <glyph glyph-name="ebreve" unicode="&#x115;" horiz-adv-x="375" 
d="M197 503c130 0 168 -118 168 -249v-29h-217v-25c0 -85 17 -111 54 -111c32 0 46 21 53 81l105 -9c-8 -108 -67 -171 -162 -171c-117 0 -178 82 -178 253c0 168 62 260 177 260zM147 306h99c-1 76 -14 107 -46 107c-31 0 -50 -27 -53 -107zM73 674h61
c10 -27 35 -39 66 -39c32 0 50 7 65 39h61c-18 -73 -62 -107 -126 -107c-68 0 -112 38 -127 107z" />
    <glyph glyph-name="Edotaccent" unicode="&#x116;" 
d="M51 667h347v-117h-210v-155h161v-111h-161v-167h210v-117h-347v667zM229 715c-31 0 -59 24 -59 59c0 33 26 59 59 59s59 -26 59 -59c0 -35 -28 -59 -59 -59z" />
    <glyph glyph-name="edotaccent" unicode="&#x117;" horiz-adv-x="375" 
d="M197 503c130 0 168 -118 168 -249v-29h-217v-25c0 -85 17 -111 54 -111c32 0 46 21 53 81l105 -9c-8 -108 -67 -171 -162 -171c-117 0 -178 82 -178 253c0 168 62 260 177 260zM147 306h99c-1 76 -14 107 -46 107c-31 0 -50 -27 -53 -107zM197 679c34 0 59 -27 59 -59
c0 -33 -26 -59 -59 -59c-31 0 -59 24 -59 59c0 32 26 59 59 59z" />
    <glyph glyph-name="Eogonek" unicode="&#x118;" 
d="M379 -128l9 -39c-27 -11 -51 -11 -63 -11c-67 0 -109 35 -109 83c0 36 27 71 72 95h-237v667h347v-117h-210v-155h161v-111h-161v-167h210v-117h-66c-19 -20 -43 -44 -43 -81s24 -51 55 -51c13 0 23 1 35 4z" />
    <glyph glyph-name="eogonek" unicode="&#x119;" horiz-adv-x="375" 
d="M274 -128l9 -39c-21 -8 -41 -11 -63 -11c-51 0 -109 24 -109 83c0 37 28 68 58 87c-127 16 -149 144 -149 251c0 118 33 260 177 260c74 0 119 -38 147 -103c19 -44 21 -114 21 -162v-13h-217c0 -42 -9 -136 54 -136c44 0 49 48 53 81l105 -9c-7 -87 -48 -161 -142 -170
c-22 -24 -34 -39 -34 -72c0 -35 22 -51 55 -51c12 0 24 1 35 4zM147 306h99c0 32 0 107 -47 107s-52 -74 -52 -107z" />
    <glyph glyph-name="Ecaron" unicode="&#x11a;" 
d="M51 667h347v-117h-210v-155h161v-111h-161v-167h210v-117h-347v667zM400 855l-171 -153l-173 153h93l80 -51l78 51h93z" />
    <glyph glyph-name="ecaron" unicode="&#x11b;" horiz-adv-x="375" 
d="M197 503c130 0 168 -118 168 -249v-29h-217v-25c0 -85 17 -111 54 -111c32 0 46 21 53 81l105 -9c-8 -108 -67 -171 -162 -171c-117 0 -178 82 -178 253c0 168 62 260 177 260zM147 306h99c-1 76 -14 107 -46 107c-31 0 -50 -27 -53 -107zM49 692h86l63 -48l60 48h87
l-147 -144z" />
    <glyph glyph-name="Gcircumflex" unicode="&#x11c;" horiz-adv-x="477" 
d="M248 677c112 0 178 -71 193 -226l-113 -21l-9 52c-9 51 -29 76 -70 76c-62 0 -78 -50 -78 -240c0 -156 19 -209 79 -209s73 52 73 132h-83v111h202v-352h-59l-16 80c-31 -67 -69 -90 -133 -90c-136 0 -204 111 -204 335c0 227 75 352 218 352zM423 709h-93l-78 51
l-80 -51h-93l173 153z" />
    <glyph glyph-name="gcircumflex" unicode="&#x11d;" 
d="M386 577c11 0 13 -1 32 -5v-88c-10 5 -18 7 -25 7c-24 0 -38 -15 -46 -47c24 -33 30 -57 30 -94c0 -96 -60 -154 -151 -154c-16 0 -41 3 -57 6c-17 -9 -24 -26 -24 -41c0 -19 2 -32 68 -38c37 -4 81 -9 90 -11c86 -17 108 -65 108 -129c0 -100 -74 -155 -205 -155
c-120 0 -182 36 -182 111c0 47 19 79 66 100c-35 21 -50 47 -50 80c0 44 24 85 67 108c-43 21 -65 61 -65 118c0 110 70 158 169 158c33 0 67 -6 98 -22v4c0 61 26 92 77 92zM170 354c0 -60 13 -82 41 -82c24 0 38 14 38 77c0 53 -9 80 -41 80c-22 0 -38 -18 -38 -75z
M143 15c-15 -20 -17 -30 -17 -44c0 -35 30 -49 89 -49c53 0 78 16 78 45c0 33 -27 40 -85 43c-20 1 -45 3 -65 5zM65 595l149 143l147 -143h-87l-60 48l-63 -48h-86z" />
    <glyph glyph-name="Gbreve" unicode="&#x11e;" horiz-adv-x="477" 
d="M248 677c112 0 178 -71 193 -226l-113 -21l-9 52c-9 51 -29 76 -70 76c-62 0 -78 -50 -78 -240c0 -156 19 -209 79 -209s73 52 73 132h-83v111h202v-352h-59l-16 80c-31 -67 -69 -90 -133 -90c-136 0 -204 111 -204 335c0 227 75 352 218 352zM316 828h61
c-19 -72 -61 -107 -126 -107c-67 0 -110 35 -127 107h61c12 -25 29 -39 66 -39c29 0 52 8 65 39z" />
    <glyph glyph-name="gbreve" unicode="&#x11f;" 
d="M386 577c11 0 13 -1 32 -5v-88c-10 5 -18 7 -25 7c-24 0 -38 -15 -46 -47c24 -33 30 -57 30 -94c0 -96 -60 -154 -151 -154c-16 0 -41 3 -57 6c-17 -9 -24 -26 -24 -41c0 -19 2 -32 68 -38c37 -4 81 -9 90 -11c86 -17 108 -65 108 -129c0 -100 -74 -155 -205 -155
c-120 0 -182 36 -182 111c0 47 19 79 66 100c-35 21 -50 47 -50 80c0 44 24 85 67 108c-43 21 -65 61 -65 118c0 110 70 158 169 158c33 0 67 -6 98 -22v4c0 61 26 92 77 92zM170 354c0 -60 13 -82 41 -82c24 0 38 14 38 77c0 53 -9 80 -41 80c-22 0 -38 -18 -38 -75z
M143 15c-15 -20 -17 -30 -17 -44c0 -35 30 -49 89 -49c53 0 78 16 78 45c0 33 -27 40 -85 43c-20 1 -45 3 -65 5zM86 674h61c10 -27 35 -39 66 -39c32 0 50 7 65 39h61c-18 -73 -62 -107 -126 -107c-68 0 -112 38 -127 107z" />
    <glyph glyph-name="Gdotaccent" unicode="&#x120;" horiz-adv-x="477" 
d="M248 677c112 0 178 -71 193 -226l-113 -21l-9 52c-9 51 -29 76 -70 76c-62 0 -78 -50 -78 -240c0 -156 19 -209 79 -209s73 52 73 132h-83v111h202v-352h-59l-16 80c-31 -67 -69 -90 -133 -90c-136 0 -204 111 -204 335c0 227 75 352 218 352zM249 715
c-31 0 -59 24 -59 59c0 33 26 59 59 59s59 -26 59 -59c0 -35 -28 -59 -59 -59z" />
    <glyph glyph-name="gdotaccent" unicode="&#x121;" 
d="M386 577c11 0 13 -1 32 -5v-88c-10 5 -18 7 -25 7c-24 0 -38 -15 -46 -47c24 -33 30 -57 30 -94c0 -96 -60 -154 -151 -154c-16 0 -41 3 -57 6c-17 -9 -24 -26 -24 -41c0 -19 2 -32 68 -38c37 -4 81 -9 90 -11c86 -17 108 -65 108 -129c0 -100 -74 -155 -205 -155
c-120 0 -182 36 -182 111c0 47 19 79 66 100c-35 21 -50 47 -50 80c0 44 24 85 67 108c-43 21 -65 61 -65 118c0 110 70 158 169 158c33 0 67 -6 98 -22v4c0 61 26 92 77 92zM170 354c0 -60 13 -82 41 -82c24 0 38 14 38 77c0 53 -9 80 -41 80c-22 0 -38 -18 -38 -75z
M143 15c-15 -20 -17 -30 -17 -44c0 -35 30 -49 89 -49c53 0 78 16 78 45c0 33 -27 40 -85 43c-20 1 -45 3 -65 5zM210 679c34 0 59 -27 59 -59c0 -33 -26 -59 -59 -59c-31 0 -59 24 -59 59c0 32 26 59 59 59z" />
    <glyph glyph-name="Gcommaaccent" unicode="&#x122;" horiz-adv-x="477" 
d="M248 677c112 0 178 -71 193 -226l-113 -21l-9 52c-9 51 -29 76 -70 76c-62 0 -78 -50 -78 -240c0 -156 19 -209 79 -209s73 52 73 132h-83v111h202v-352h-59l-16 80c-31 -67 -69 -90 -133 -90c-136 0 -204 111 -204 335c0 227 75 352 218 352zM247 -222h-53l36 73h-42v97
h99v-93z" />
    <glyph glyph-name="gcommaaccent" unicode="&#x123;" 
d="M386 577c11 0 13 -1 32 -5v-88c-10 5 -18 7 -25 7c-24 0 -38 -15 -46 -47c24 -33 30 -57 30 -94c0 -96 -60 -154 -151 -154c-16 0 -41 3 -57 6c-17 -9 -24 -26 -24 -41c0 -19 2 -32 68 -38c37 -4 81 -9 90 -11c86 -17 108 -65 108 -129c0 -100 -74 -155 -205 -155
c-120 0 -182 36 -182 111c0 47 19 79 66 100c-35 21 -50 47 -50 80c0 44 24 85 67 108c-43 21 -65 61 -65 118c0 110 70 158 169 158c33 0 67 -6 98 -22v4c0 61 26 92 77 92zM170 354c0 -60 13 -82 41 -82c24 0 38 14 38 77c0 53 -9 80 -41 80c-22 0 -38 -18 -38 -75z
M143 15c-15 -20 -17 -30 -17 -44c0 -35 30 -49 89 -49c53 0 78 16 78 45c0 33 -27 40 -85 43c-20 1 -45 3 -65 5zM259 561h-95v85l38 78h46l-30 -75h41v-88z" />
    <glyph glyph-name="Hcircumflex" unicode="&#x124;" horiz-adv-x="477" 
d="M51 667h137v-263h101v263h137v-667h-137v287h-101v-287h-137v667zM412 709h-93l-78 51l-80 -51h-93l173 153z" />
    <glyph glyph-name="hcircumflex" unicode="&#x125;" 
d="M38 667h128v-238c19 55 51 74 100 74c71 0 108 -36 108 -135v-368h-128v351c0 39 -15 46 -38 46c-29 0 -42 -14 -42 -51v-346h-128v667zM60 706l149 143l147 -143h-87l-60 48l-63 -48h-86z" />
    <glyph glyph-name="Hbar" unicode="&#x126;" horiz-adv-x="477" 
d="M426 0h-137v287h-101v-287h-137v667h137v-115h101v115h137v-667zM289 394v89h-101v-89h101z" />
    <glyph glyph-name="hbar" unicode="&#x127;" horiz-adv-x="439" 
d="M404 0h-128v347c0 30 -4 50 -38 50c-38 0 -42 -25 -42 -57v-340h-128v534h-64v69h64v64h128v-64h84v-69h-84v-105c16 50 47 74 100 74c92 0 108 -63 108 -142v-361z" />
    <glyph glyph-name="Itilde" unicode="&#x128;" horiz-adv-x="239" 
d="M51 667h137v-667h-137v667zM223 837l39 -34c-23 -53 -56 -85 -92 -85c-20 0 -42 10 -58 22s-42 28 -57 28c-17 0 -27 -14 -40 -34l-35 32c23 51 60 80 87 80c14 0 34 -8 59 -24s45 -24 58 -24c12 0 22 6 39 39z" />
    <glyph glyph-name="itilde" unicode="&#x129;" horiz-adv-x="204" 
d="M38 493h128v-493h-128v493zM56 677c30 0 81 -44 105 -44c12 0 20 3 39 37l35 -30c-25 -52 -51 -76 -87 -76c-38 0 -80 44 -103 44c-15 0 -25 -10 -38 -30l-33 30c25 44 52 69 82 69z" />
    <glyph glyph-name="Imacron" unicode="&#x12a;" horiz-adv-x="239" 
d="M51 667h137v-667h-137v667zM226 736h-212v69h212v-69z" />
    <glyph glyph-name="imacron" unicode="&#x12b;" horiz-adv-x="204" 
d="M38 493h128v-493h-128v493zM-2 651h212v-69h-212v69z" />
    <glyph glyph-name="Iogonek" unicode="&#x12e;" horiz-adv-x="239" 
d="M194 -128l9 -39c-27 -11 -51 -11 -63 -11c-67 0 -109 35 -109 83c0 36 27 71 72 95h-52v667h137v-667h-41c-19 -20 -43 -44 -43 -81s24 -51 55 -51c13 0 23 1 35 4z" />
    <glyph glyph-name="iogonek" unicode="&#x12f;" horiz-adv-x="204" 
d="M166 537h-128v136h128v-136zM178 -128l9 -39c-27 -11 -51 -11 -63 -11c-67 0 -109 35 -109 83c0 36 27 71 72 95h-49v493h128v-493h-35c-19 -20 -43 -44 -43 -81s24 -51 55 -51c13 0 23 1 35 4z" />
    <glyph glyph-name="Idotaccent" unicode="&#x130;" horiz-adv-x="239" 
d="M51 667h137v-667h-137v667zM121 715c-31 0 -59 24 -59 59c0 33 26 59 59 59s59 -26 59 -59c0 -35 -28 -59 -59 -59z" />
    <glyph glyph-name="dotlessi" unicode="&#x131;" horiz-adv-x="204" 
d="M38 493h128v-493h-128v493z" />
    <glyph glyph-name="Jcircumflex" unicode="&#x134;" horiz-adv-x="307" 
d="M125 667h137v-477c0 -143 -48 -200 -161 -200c-27 0 -54 4 -81 12v119c28 -3 36 -4 47 -4c49 0 58 24 58 96v454zM366 709h-93l-78 51l-80 -51h-93l173 153z" />
    <glyph glyph-name="jcircumflex" unicode="&#x135;" horiz-adv-x="204" 
d="M-19 -175v104c8 -1 16 -1 19 -1c33 0 38 20 38 68v497h128v-498c0 -113 -9 -173 -129 -173c-19 0 -35 1 -56 3zM-44 555l149 143l147 -143h-87l-60 48l-63 -48h-86z" />
    <glyph glyph-name="Kcommaaccent" unicode="&#x136;" horiz-adv-x="460" 
d="M51 667h137v-219c0 -5 -1 -16 -5 -77c8 29 16 55 24 73l101 223h134l-135 -247l155 -420h-141l-94 301l-39 -89v-212h-137v667zM259 -222h-53l36 73h-42v97h99v-93z" />
    <glyph glyph-name="kcommaaccent" unicode="&#x137;" horiz-adv-x="392" 
d="M38 667h128v-348l99 174h120l-116 -175l125 -318h-133l-67 214l-28 -47v-167h-128v667zM223 -222h-53l36 73h-42v97h99v-93z" />
    <glyph glyph-name="Lacute" unicode="&#x139;" horiz-adv-x="358" 
d="M51 667h137v-544h169v-123h-306v667zM311 778l-191 -70l-29 57l180 97z" />
    <glyph glyph-name="lacute" unicode="&#x13a;" horiz-adv-x="204" 
d="M38 667h128v-667h-128v667zM293 778l-191 -70l-29 57l180 97z" />
    <glyph glyph-name="Lcommaaccent" unicode="&#x13b;" horiz-adv-x="358" 
d="M51 667h137v-544h169v-123h-306v667zM210 -222h-53l36 73h-42v97h99v-93z" />
    <glyph glyph-name="lcommaaccent" unicode="&#x13c;" horiz-adv-x="204" 
d="M38 667h128v-667h-128v667zM112 -222h-53l36 73h-42v97h99v-93z" />
    <glyph glyph-name="Lcaron" unicode="&#x13d;" horiz-adv-x="358" 
d="M51 667h137v-544h169v-123h-306v667zM273 463h-57l20 205h88c-23 -92 -38 -146 -51 -205z" />
    <glyph glyph-name="lcaron" unicode="&#x13e;" horiz-adv-x="309" 
d="M38 667h128v-667h-128v667zM251 463h-57l20 205h88c-23 -92 -38 -146 -51 -205z" />
    <glyph glyph-name="Ldot" unicode="&#x13f;" horiz-adv-x="358" 
d="M51 667h137v-544h169v-123h-306v667zM284 380c34 0 59 -27 59 -59c0 -33 -26 -59 -59 -59c-31 0 -59 24 -59 59c0 32 26 59 59 59z" />
    <glyph glyph-name="ldot" unicode="&#x140;" horiz-adv-x="322" 
d="M38 667h128v-667h-128v667zM261 380c34 0 59 -27 59 -59c0 -33 -26 -59 -59 -59c-31 0 -59 24 -59 59c0 32 26 59 59 59z" />
    <glyph glyph-name="Lslash" unicode="&#x141;" horiz-adv-x="358" 
d="M51 667h137v-245l87 85v-109l-87 -85v-190h169v-123h-306v229l-47 -47v109l47 47v329z" />
    <glyph glyph-name="lslash" unicode="&#x142;" horiz-adv-x="255" 
d="M64 667h128v-224l50 47v-90l-50 -47v-353h-128v276l-50 -48v90l50 48v301z" />
    <glyph glyph-name="Nacute" unicode="&#x143;" horiz-adv-x="477" 
d="M51 667h134l103 -291c6 -17 20 -61 37 -146c-8 112 -10 169 -10 197v240h111v-667h-111l-125 341c-13 36 -26 79 -39 136c9 -101 11 -179 11 -193v-284h-111v667zM417 778l-191 -70l-29 57l180 97z" />
    <glyph glyph-name="nacute" unicode="&#x144;" 
d="M263 503c73 0 111 -33 111 -138v-365h-128v341c0 47 -12 57 -39 57s-41 -14 -41 -59v-339h-128v493h114v-73c25 60 58 83 111 83zM134 583l137 131l57 -66l-154 -108z" />
    <glyph glyph-name="Ncommaaccent" unicode="&#x145;" horiz-adv-x="477" 
d="M51 667h134l103 -291c6 -17 20 -61 37 -146c-8 112 -10 169 -10 197v240h111v-667h-111l-125 341c-13 36 -26 79 -39 136c9 -101 11 -179 11 -193v-284h-111v667zM252 -222h-53l36 73h-42v97h99v-93z" />
    <glyph glyph-name="ncommaaccent" unicode="&#x146;" 
d="M263 503c73 0 111 -33 111 -138v-365h-128v341c0 47 -12 57 -39 57s-41 -14 -41 -59v-339h-128v493h114v-73c25 60 58 83 111 83zM216 -222h-53l36 73h-42v97h99v-93z" />
    <glyph glyph-name="Ncaron" unicode="&#x147;" horiz-adv-x="477" 
d="M51 667h134l103 -291c6 -17 20 -61 37 -146c-8 112 -10 169 -10 197v240h111v-667h-111l-125 341c-13 36 -26 79 -39 136c9 -101 11 -179 11 -193v-284h-111v667zM414 855l-171 -153l-173 153h93l80 -51l78 51h93z" />
    <glyph glyph-name="ncaron" unicode="&#x148;" 
d="M263 503c73 0 111 -33 111 -138v-365h-128v341c0 47 -12 57 -39 57s-41 -14 -41 -59v-339h-128v493h114v-73c25 60 58 83 111 83zM57 692h86l63 -48l60 48h87l-147 -144z" />
    <glyph glyph-name="Omacron" unicode="&#x14c;" horiz-adv-x="477" 
d="M240 677c140 0 207 -107 207 -348c0 -239 -69 -339 -210 -339c-148 0 -207 122 -207 351c0 233 70 336 210 336zM175 327c0 -151 7 -218 65 -218c53 0 62 37 62 226c0 167 -7 223 -65 223c-62 0 -62 -105 -62 -231zM344 736h-212v69h212v-69z" />
    <glyph glyph-name="omacron" unicode="&#x14d;" horiz-adv-x="392" 
d="M196 503c116 0 175 -95 175 -255c0 -169 -60 -258 -178 -258c-133 0 -173 123 -173 265c0 152 60 248 176 248zM153 249c0 -117 1 -169 42 -169c43 0 43 53 43 171s-1 162 -41 162c-44 0 -44 -44 -44 -164zM91 651h212v-69h-212v69z" />
    <glyph glyph-name="Obreve" unicode="&#x14e;" horiz-adv-x="477" 
d="M240 677c140 0 207 -107 207 -348c0 -239 -69 -339 -210 -339c-148 0 -207 122 -207 351c0 233 70 336 210 336zM175 327c0 -151 7 -218 65 -218c53 0 62 37 62 226c0 167 -7 223 -65 223c-62 0 -62 -105 -62 -231zM304 828h61c-19 -72 -61 -107 -126 -107
c-67 0 -110 35 -127 107h61c12 -25 29 -39 66 -39c29 0 52 8 65 39z" />
    <glyph glyph-name="obreve" unicode="&#x14f;" horiz-adv-x="392" 
d="M196 503c116 0 175 -95 175 -255c0 -169 -60 -258 -178 -258c-133 0 -173 123 -173 265c0 152 60 248 176 248zM153 249c0 -117 1 -169 42 -169c43 0 43 53 43 171s-1 162 -41 162c-44 0 -44 -44 -44 -164zM71 674h61c10 -27 35 -39 66 -39c32 0 50 7 65 39h61
c-18 -73 -62 -107 -126 -107c-68 0 -112 38 -127 107z" />
    <glyph glyph-name="Ohungarumlaut" unicode="&#x150;" horiz-adv-x="477" 
d="M240 677c140 0 207 -107 207 -348c0 -239 -69 -339 -210 -339c-148 0 -207 122 -207 351c0 233 70 336 210 336zM175 327c0 -151 7 -218 65 -218c53 0 62 37 62 226c0 167 -7 223 -65 223c-62 0 -62 -105 -62 -231zM273 803l-111 -94l-44 38l103 115zM415 803l-111 -94
l-44 38l103 115z" />
    <glyph glyph-name="ohungarumlaut" unicode="&#x151;" horiz-adv-x="392" 
d="M196 503c116 0 175 -95 175 -255c0 -169 -60 -258 -178 -258c-133 0 -173 123 -173 265c0 152 60 248 176 248zM153 249c0 -117 1 -169 42 -169c43 0 43 53 43 171s-1 162 -41 162c-44 0 -44 -44 -44 -164zM77 583l99 125l52 -59l-107 -104zM219 583l99 125l52 -59
l-107 -104z" />
    <glyph glyph-name="Racute" unicode="&#x154;" horiz-adv-x="460" 
d="M51 0v667h210c126 0 172 -97 172 -199c0 -79 -19 -139 -87 -179l101 -289h-144l-75 262h-43v-262h-134zM185 562v-190h35c46 0 77 19 77 98c0 72 -30 92 -80 92h-32zM370 778l-191 -70l-29 57l180 97z" />
    <glyph glyph-name="racute" unicode="&#x155;" horiz-adv-x="290" 
d="M255 503c12 0 27 -2 34 -3v-135c-3 0 -13 1 -17 1c-88 0 -106 -61 -106 -137v-229h-128v493h114v-120c21 85 56 130 103 130zM102 583l137 131l57 -66l-154 -108z" />
    <glyph glyph-name="Rcommaaccent" unicode="&#x156;" horiz-adv-x="460" 
d="M51 0v667h210c126 0 172 -97 172 -199c0 -79 -19 -139 -87 -179l101 -289h-144l-75 262h-43v-262h-134zM185 562v-190h35c46 0 77 19 77 98c0 72 -30 92 -80 92h-32zM248 -222h-53l36 73h-42v97h99v-93z" />
    <glyph glyph-name="rcommaaccent" unicode="&#x157;" horiz-adv-x="290" 
d="M255 503c12 0 27 -2 34 -3v-135c-3 0 -13 1 -17 1c-88 0 -106 -61 -106 -137v-229h-128v493h114v-120c21 85 56 130 103 130zM111 -222h-53l36 73h-42v97h99v-93z" />
    <glyph glyph-name="Rcaron" unicode="&#x158;" horiz-adv-x="460" 
d="M51 0v667h210c126 0 172 -97 172 -199c0 -79 -19 -139 -87 -179l101 -289h-144l-75 262h-43v-262h-134zM185 562v-190h35c46 0 77 19 77 98c0 72 -30 92 -80 92h-32zM402 855l-171 -153l-173 153h93l80 -51l78 51h93z" />
    <glyph glyph-name="rcaron" unicode="&#x159;" horiz-adv-x="290" 
d="M255 503c12 0 27 -2 34 -3v-135c-3 0 -13 1 -17 1c-88 0 -106 -61 -106 -137v-229h-128v493h114v-120c21 85 56 130 103 130zM19 692h86l63 -48l60 48h87l-147 -144z" />
    <glyph glyph-name="Sacute" unicode="&#x15a;" 
d="M206 677c88 0 152 -46 182 -153l-102 -45c-11 48 -36 78 -76 78c-37 0 -58 -26 -58 -65c0 -42 16 -59 100 -95c117 -50 146 -116 146 -196c0 -128 -77 -211 -202 -211c-111 0 -175 61 -196 180l109 38c15 -68 38 -98 87 -98c44 0 68 30 68 71c0 37 -19 59 -61 78
c-143 65 -179 120 -179 224c0 85 62 194 182 194zM373 778l-191 -70l-29 57l180 97z" />
    <glyph glyph-name="sacute" unicode="&#x15b;" horiz-adv-x="358" 
d="M184 503c74 0 122 -37 143 -128l-91 -23c-5 37 -24 56 -55 56c-27 0 -41 -14 -41 -35c0 -18 11 -32 34 -44c25 -13 51 -25 76 -37c55 -26 97 -66 97 -144c0 -100 -68 -158 -167 -158c-93 0 -153 46 -166 146l99 16c7 -46 26 -64 65 -64c26 0 49 11 49 38
c0 24 -5 37 -80 71c-99 45 -122 90 -122 151c0 91 67 155 159 155zM122 583l137 131l57 -66l-154 -108z" />
    <glyph glyph-name="Scircumflex" unicode="&#x15c;" 
d="M206 677c88 0 152 -46 182 -153l-102 -45c-11 48 -36 78 -76 78c-37 0 -58 -26 -58 -65c0 -42 16 -59 100 -95c117 -50 146 -116 146 -196c0 -128 -77 -211 -202 -211c-111 0 -175 61 -196 180l109 38c15 -68 38 -98 87 -98c44 0 68 30 68 71c0 37 -19 59 -61 78
c-143 65 -179 120 -179 224c0 85 62 194 182 194zM387 709h-93l-78 51l-80 -51h-93l173 153z" />
    <glyph glyph-name="scircumflex" unicode="&#x15d;" horiz-adv-x="358" 
d="M184 503c74 0 122 -37 143 -128l-91 -23c-5 37 -24 56 -55 56c-27 0 -41 -14 -41 -35c0 -18 11 -32 34 -44c25 -13 51 -25 76 -37c55 -26 97 -66 97 -144c0 -100 -68 -158 -167 -158c-93 0 -153 46 -166 146l99 16c7 -46 26 -64 65 -64c26 0 49 11 49 38
c0 24 -5 37 -80 71c-99 45 -122 90 -122 151c0 91 67 155 159 155zM38 555l149 143l147 -143h-87l-60 48l-63 -48h-86z" />
    <glyph glyph-name="Scedilla" unicode="&#x15e;" 
d="M111 -175l13 40c18 -8 37 -16 57 -16s36 10 36 32c0 34 -32 37 -58 37c-5 0 -9 -1 -14 -2l24 75c-104 11 -152 82 -169 179l109 38c11 -50 28 -98 87 -98c43 0 68 29 68 71c0 43 -26 61 -61 78c-109 52 -179 93 -179 224c0 102 76 194 182 194c100 0 156 -60 182 -153
l-102 -45c-9 39 -31 78 -76 78c-39 0 -58 -28 -58 -65c0 -59 54 -75 100 -95c92 -40 146 -91 146 -196c0 -118 -67 -205 -189 -211l-12 -38c4 0 15 1 20 1c34 0 70 -20 70 -70c0 -53 -43 -83 -93 -83c-28 0 -60 9 -83 25z" />
    <glyph glyph-name="scedilla" unicode="&#x15f;" horiz-adv-x="358" 
d="M88 -175l13 40c27 -12 42 -16 57 -16c19 0 36 9 36 32c0 17 -8 37 -51 37c-8 0 -9 1 -21 -2l24 76c-74 10 -121 56 -132 144l99 16c7 -46 26 -64 65 -64c26 0 49 11 49 38c0 24 -5 37 -80 71c-99 45 -122 90 -122 151c0 91 67 155 159 155c74 0 122 -37 143 -128l-91 -23
c-5 37 -24 56 -55 56c-27 0 -41 -14 -41 -35c0 -18 11 -32 34 -44c25 -13 51 -25 76 -37c55 -26 97 -66 97 -144c0 -99 -66 -156 -162 -158l-11 -38c3 0 12 1 18 1c45 0 72 -29 72 -70c0 -51 -40 -83 -93 -83c-20 0 -55 6 -83 25z" />
    <glyph glyph-name="Tcommaaccent" unicode="&#x162;" horiz-adv-x="358" 
d="M0 667h358v-126h-112v-541h-137v541h-109v126zM187 -222h-53l36 73h-42v97h99v-93z" />
    <glyph glyph-name="tcommaaccent" unicode="&#x163;" horiz-adv-x="273" 
d="M183 654v-159h77v-103h-77v-213c0 -59 12 -72 52 -72c13 0 22 0 31 3v-102c-29 -8 -58 -13 -76 -13c-100 0 -135 45 -135 149v248h-53v103h59l11 151zM163 -222h-53l36 73h-42v97h99v-93z" />
    <glyph glyph-name="Tcaron" unicode="&#x164;" horiz-adv-x="358" 
d="M0 667h358v-126h-112v-541h-137v541h-109v126zM351 855l-171 -153l-173 153h93l80 -51l78 51h93z" />
    <glyph glyph-name="tcaron" unicode="&#x165;" horiz-adv-x="321" 
d="M183 654v-159h77v-103h-77v-213c0 -59 12 -72 52 -72c13 0 22 0 31 3v-102c-29 -8 -58 -13 -76 -13c-100 0 -135 45 -135 149v248h-53v103h59l11 151zM276 529h-57l20 205h88c-23 -92 -38 -146 -51 -205z" />
    <glyph glyph-name="Tbar" unicode="&#x166;" horiz-adv-x="358" 
d="M246 0h-137v342h-86v69h86v130h-109v126h358v-126h-112v-130h85v-69h-85v-342z" />
    <glyph glyph-name="tbar" unicode="&#x167;" horiz-adv-x="273" 
d="M266 108v-102c-27 -8 -54 -13 -82 -13c-37 0 -87 11 -107 46c-23 41 -22 80 -22 126v72h-51v69h51v84h-53v103h59l11 151l111 8v-159h77v-103h-77v-84h73v-69h-73v-33c0 -22 -1 -46 3 -68c5 -25 26 -31 49 -31c10 0 21 2 31 3z" />
    <glyph glyph-name="Utilde" unicode="&#x168;" horiz-adv-x="477" 
d="M45 667h137v-441c0 -87 20 -114 68 -114c42 0 66 18 66 118v437h116v-440c0 -176 -64 -237 -191 -237c-149 0 -196 72 -196 241v436zM339 837l39 -34c-23 -53 -56 -85 -92 -85c-20 0 -42 10 -58 22s-42 28 -57 28c-17 0 -27 -14 -40 -34l-35 32c23 51 60 80 87 80
c14 0 34 -8 59 -24s45 -24 58 -24c12 0 22 6 39 39z" />
    <glyph glyph-name="utilde" unicode="&#x169;" 
d="M35 493h128v-343c0 -40 12 -55 37 -55c36 0 43 20 43 76v322h128v-493h-114v70c-27 -57 -60 -80 -109 -80c-65 0 -113 22 -113 140v363zM157 677c30 0 81 -44 105 -44c12 0 20 3 39 37l35 -30c-25 -52 -51 -76 -87 -76c-38 0 -80 44 -103 44c-15 0 -25 -10 -38 -30
l-33 30c25 44 52 69 82 69z" />
    <glyph glyph-name="Umacron" unicode="&#x16a;" horiz-adv-x="477" 
d="M45 667h137v-441c0 -87 20 -114 68 -114c42 0 66 18 66 118v437h116v-440c0 -176 -64 -237 -191 -237c-149 0 -196 72 -196 241v436zM347 736h-212v69h212v-69z" />
    <glyph glyph-name="umacron" unicode="&#x16b;" 
d="M35 493h128v-343c0 -40 12 -55 37 -55c36 0 43 20 43 76v322h128v-493h-114v70c-27 -57 -60 -80 -109 -80c-65 0 -113 22 -113 140v363zM99 651h212v-69h-212v69z" />
    <glyph glyph-name="Ubreve" unicode="&#x16c;" horiz-adv-x="477" 
d="M45 667h137v-441c0 -87 20 -114 68 -114c42 0 66 18 66 118v437h116v-440c0 -176 -64 -237 -191 -237c-149 0 -196 72 -196 241v436zM303 828h61c-19 -72 -61 -107 -126 -107c-67 0 -110 35 -127 107h61c12 -25 29 -39 66 -39c29 0 52 8 65 39z" />
    <glyph glyph-name="ubreve" unicode="&#x16d;" 
d="M35 493h128v-343c0 -40 12 -55 37 -55c36 0 43 20 43 76v322h128v-493h-114v70c-27 -57 -60 -80 -109 -80c-65 0 -113 22 -113 140v363zM78 674h61c10 -27 35 -39 66 -39c32 0 50 7 65 39h61c-18 -73 -62 -107 -126 -107c-68 0 -112 38 -127 107z" />
    <glyph glyph-name="Uring" unicode="&#x16e;" horiz-adv-x="477" 
d="M45 667h137v-441c0 -87 20 -114 68 -114c42 0 66 18 66 118v437h116v-440c0 -176 -64 -237 -191 -237c-149 0 -196 72 -196 241v436zM241 690c-53 0 -96 42 -96 95c0 54 42 96 96 96s96 -41 96 -95c0 -53 -43 -96 -96 -96zM277 785c0 19 -17 36 -36 36
c-20 0 -36 -16 -36 -36c0 -19 17 -35 36 -35c20 0 36 15 36 35z" />
    <glyph glyph-name="uring" unicode="&#x16f;" 
d="M35 493h128v-343c0 -40 12 -55 37 -55c36 0 43 20 43 76v322h128v-493h-114v70c-27 -57 -60 -80 -109 -80c-65 0 -113 22 -113 140v363zM203 726c54 0 96 -43 96 -95c0 -56 -45 -96 -96 -96c-50 0 -96 40 -96 96c0 52 42 95 96 95zM166 631c0 -22 20 -37 37 -37
s37 13 37 36c0 21 -17 37 -38 37c-19 0 -36 -17 -36 -36z" />
    <glyph glyph-name="Uhungarumlaut" unicode="&#x170;" horiz-adv-x="477" 
d="M45 667h137v-441c0 -87 20 -114 68 -114c42 0 66 18 66 118v437h116v-440c0 -176 -64 -237 -191 -237c-149 0 -196 72 -196 241v436zM290 803l-111 -94l-44 38l103 115zM432 803l-111 -94l-44 38l103 115z" />
    <glyph glyph-name="uhungarumlaut" unicode="&#x171;" 
d="M35 493h128v-343c0 -40 12 -55 37 -55c36 0 43 20 43 76v322h128v-493h-114v70c-27 -57 -60 -80 -109 -80c-65 0 -113 22 -113 140v363zM84 583l99 125l52 -59l-107 -104zM226 583l99 125l52 -59l-107 -104z" />
    <glyph glyph-name="Uogonek" unicode="&#x172;" horiz-adv-x="477" 
d="M320 -128l9 -39c-27 -11 -51 -11 -63 -11c-67 0 -109 35 -109 83c0 35 25 66 57 86c-128 9 -169 81 -169 240v436h137v-441c0 -87 20 -114 68 -114c42 0 66 18 66 118v437h116v-440c0 -166 -57 -229 -170 -236c-31 -37 -32 -52 -32 -72c0 -37 24 -51 55 -51
c13 0 23 1 35 4z" />
    <glyph glyph-name="uogonek" unicode="&#x173;" 
d="M348 -128l9 -39c-27 -11 -51 -11 -63 -11c-67 0 -109 35 -109 83c0 36 27 71 72 95v70c-27 -57 -60 -80 -109 -80c-65 0 -113 22 -113 140v363h128v-343c0 -40 12 -55 37 -55c36 0 43 20 43 76v322h128v-493h-70c-19 -20 -43 -44 -43 -81s24 -51 55 -51c13 0 23 1 35 4z
" />
    <glyph glyph-name="Wcircumflex" unicode="&#x174;" horiz-adv-x="630" 
d="M0 667h145l37 -314c9 -73 8 -116 13 -175c5 64 21 193 21 192l49 297h123l51 -300c8 -47 9 -73 19 -190c3 61 8 141 15 193l39 297h119l-121 -667h-120l-55 315c-14 80 -17 124 -18 161c-4 -40 -11 -106 -21 -166l-54 -310h-120zM502 709h-93l-78 51l-80 -51h-93l173 153
z" />
    <glyph glyph-name="wcircumflex" unicode="&#x175;" horiz-adv-x="511" 
d="M-4 493h126l33 -187c5 -28 8 -83 11 -139c9 108 12 134 16 159l25 167h119l27 -174c7 -46 13 -131 14 -151c12 119 15 139 17 152l27 173h104l-107 -493h-99l-48 285c-2 12 -5 51 -7 73c-1 -28 -5 -79 -10 -110l-39 -248h-102zM119 555l149 143l147 -143h-87l-60 48
l-63 -48h-86z" />
    <glyph glyph-name="Ycircumflex" unicode="&#x176;" 
d="M-6 667h144l52 -190c19 -68 16 -74 18 -127c6 54 6 68 27 138l54 179h123l-148 -393v-274h-137v274zM379 709h-93l-78 51l-80 -51h-93l173 153z" />
    <glyph glyph-name="ycircumflex" unicode="&#x177;" horiz-adv-x="324" 
d="M-3 493h128l37 -177c5 -24 9 -65 14 -148c7 66 10 122 21 179l28 146h104l-125 -505c-12 -47 -22 -80 -31 -97c-18 -35 -59 -60 -109 -60c-17 0 -32 3 -49 7v103c15 -4 29 -6 38 -6c44 0 56 34 56 109zM25 555l149 143l147 -143h-87l-60 48l-63 -48h-86z" />
    <glyph glyph-name="Zacute" unicode="&#x179;" 
d="M31 667h359v-105l-227 -445h233v-117h-383v107l227 449h-209v111zM372 778l-191 -70l-29 57l180 97z" />
    <glyph glyph-name="zacute" unicode="&#x17a;" horiz-adv-x="324" 
d="M40 493h262v-82l-147 -311h153v-100h-283v97l144 303h-129v93zM116 583l137 131l57 -66l-154 -108z" />
    <glyph glyph-name="Zdotaccent" unicode="&#x17b;" 
d="M31 667h359v-105l-227 -445h233v-117h-383v107l227 449h-209v111zM216 715c-31 0 -59 24 -59 59c0 33 26 59 59 59s59 -26 59 -59c0 -35 -28 -59 -59 -59z" />
    <glyph glyph-name="zdotaccent" unicode="&#x17c;" horiz-adv-x="324" 
d="M40 493h262v-82l-147 -311h153v-100h-283v97l144 303h-129v93zM176 679c34 0 59 -27 59 -59c0 -33 -26 -59 -59 -59c-31 0 -59 24 -59 59c0 32 26 59 59 59z" />
    <glyph glyph-name="Scommaaccent" unicode="&#x218;" 
d="M206 677c88 0 152 -46 182 -153l-102 -45c-11 48 -36 78 -76 78c-37 0 -58 -26 -58 -65c0 -42 16 -59 100 -95c117 -50 146 -116 146 -196c0 -128 -77 -211 -202 -211c-111 0 -175 61 -196 180l109 38c15 -68 38 -98 87 -98c44 0 68 30 68 71c0 37 -19 59 -61 78
c-143 65 -179 120 -179 224c0 85 62 194 182 194zM210 -222h-53l36 73h-42v97h99v-93z" />
    <glyph glyph-name="scommaaccent" unicode="&#x219;" horiz-adv-x="358" 
d="M184 503c74 0 122 -37 143 -128l-91 -23c-5 37 -24 56 -55 56c-27 0 -41 -14 -41 -35c0 -18 11 -32 34 -44c25 -13 51 -25 76 -37c55 -26 97 -66 97 -144c0 -100 -68 -158 -167 -158c-93 0 -153 46 -166 146l99 16c7 -46 26 -64 65 -64c26 0 49 11 49 38
c0 24 -5 37 -80 71c-99 45 -122 90 -122 151c0 91 67 155 159 155zM190 -222h-53l36 73h-42v97h99v-93z" />
    <glyph glyph-name="uni021A" unicode="&#x21a;" horiz-adv-x="358" 
d="M0 667h358v-126h-112v-541h-137v541h-109v126zM187 -222h-53l36 73h-42v97h99v-93z" />
    <glyph glyph-name="uni021B" unicode="&#x21b;" horiz-adv-x="273" 
d="M183 654v-159h77v-103h-77v-213c0 -59 12 -72 52 -72c13 0 22 0 31 3v-102c-29 -8 -58 -13 -76 -13c-100 0 -135 45 -135 149v248h-53v103h59l11 151zM163 -222h-53l36 73h-42v97h99v-93z" />
    <glyph glyph-name="dotlessj" unicode="&#x237;" horiz-adv-x="204" 
d="M-19 -175v104c8 -1 16 -1 19 -1c33 0 38 20 38 68v497h128v-498c0 -113 -9 -173 -129 -173c-19 0 -35 1 -56 3z" />
    <glyph glyph-name="caron" unicode="&#x2c7;" horiz-adv-x="460" 
d="M82 692h86l63 -48l60 48h87l-147 -144z" />
    <glyph glyph-name="uni02C9" unicode="&#x2c9;" horiz-adv-x="460" 
d="M130 651h212v-69h-212v69z" />
    <glyph glyph-name="breve" unicode="&#x2d8;" horiz-adv-x="460" 
d="M104 674h61c10 -27 35 -39 66 -39c32 0 50 7 65 39h61c-18 -73 -62 -107 -126 -107c-68 0 -112 38 -127 107z" />
    <glyph glyph-name="dotaccent" unicode="&#x2d9;" horiz-adv-x="460" 
d="M230 679c34 0 59 -27 59 -59c0 -33 -26 -59 -59 -59c-31 0 -59 24 -59 59c0 32 26 59 59 59z" />
    <glyph glyph-name="ring" unicode="&#x2da;" horiz-adv-x="460" 
d="M230 726c54 0 96 -43 96 -95c0 -56 -45 -96 -96 -96c-50 0 -96 40 -96 96c0 52 42 95 96 95zM193 631c0 -22 20 -37 37 -37s37 13 37 36c0 21 -17 37 -38 37c-19 0 -36 -17 -36 -36z" />
    <glyph glyph-name="ogonek" unicode="&#x2db;" horiz-adv-x="460" 
d="M258 0h44c-33 -33 -43 -54 -43 -81c0 -32 19 -51 55 -51c12 0 20 1 35 4l9 -39c-16 -8 -38 -11 -63 -11c-63 0 -109 33 -109 83c0 37 25 70 72 95z" />
    <glyph glyph-name="hungarumlaut" unicode="&#x2dd;" horiz-adv-x="460" 
d="M118 583l99 125l52 -59l-107 -104zM260 583l99 125l52 -59l-107 -104z" />
    <glyph glyph-name="uni0394" unicode="&#x394;" horiz-adv-x="512" 
d="M189 674h142l158 -597v-77h-467v75zM258 515h-2c-10 -45 -28 -123 -44 -176l-70 -236h225l-68 236c-5 19 -34 144 -41 176z" />
    <glyph glyph-name="uni03A9" unicode="&#x3a9;" horiz-adv-x="523" 
d="M264 672c144 0 221 -151 221 -283c0 -101 -30 -203 -85 -281v-3h97v-105h-204v76c44 43 70 142 70 273c0 132 -38 212 -101 212c-65 0 -106 -84 -106 -216c0 -118 28 -227 70 -269v-76h-204v105h97v3c-56 77 -85 171 -85 263c0 176 100 301 230 301z" />
    <glyph glyph-name="uni03BC" unicode="&#x3bc;" 
d="M35 493h128v-321c0 -52 9 -77 40 -77c32 0 40 26 40 77v321h128v-493h-114v69c-7 -57 -22 -76 -54 -76c-31 0 -47 20 -54 75v-235h-114v660z" />
    <glyph glyph-name="pi" unicode="&#x3c0;" horiz-adv-x="482" 
d="M135 500h337l-8 -112h-51v-269c0 -40 2 -80 10 -119h-115c-11 25 -14 76 -14 119v269h-91c-5 -110 -24 -288 -49 -388h-115c24 107 45 287 46 388c-32 0 -51 -3 -68 -7l-13 87c23 18 72 32 131 32z" />
    <glyph glyph-name="fraction" unicode="&#x2044;" horiz-adv-x="136" 
d="M165 667h75l-269 -667h-75z" />
    <glyph glyph-name="afii61289" unicode="&#x2113;" horiz-adv-x="405" 
d="M233 730c69 0 110 -60 110 -168c0 -95 -44 -198 -144 -315v-60c0 -63 24 -95 61 -95c29 0 58 22 91 78l45 -50c-35 -80 -88 -127 -164 -127c-95 0 -150 59 -150 166l-41 -36l-27 65c26 25 56 54 67 67v249c0 135 62 226 152 226zM198 488v-123c49 72 79 150 79 206
c0 44 -9 66 -37 66c-27 0 -42 -56 -42 -149z" />
    <glyph glyph-name="Omega" unicode="&#x2126;" horiz-adv-x="523" 
d="M264 672c144 0 221 -151 221 -283c0 -101 -30 -203 -85 -281v-3h97v-105h-204v76c44 43 70 142 70 273c0 132 -38 212 -101 212c-65 0 -106 -84 -106 -216c0 -118 28 -227 70 -269v-76h-204v105h97v3c-56 77 -85 171 -85 263c0 176 100 301 230 301z" />
    <glyph glyph-name="estimated" unicode="&#x212e;" horiz-adv-x="828" 
d="M413 677c220 0 382 -164 382 -340v-13h-616c-5 0 -7 -2 -7 -7v-185c0 -18 25 -44 75 -75c50 -32 113 -47 167 -47c95 0 183 41 246 114h55c-73 -85 -185 -133 -302 -133c-219 0 -381 163 -381 335c0 201 173 351 381 351zM172 536v-188c0 -4 2 -6 6 -6h474c2 0 3 2 3 5
v191c0 12 -2 20 -51 56c-53 39 -123 62 -191 62c-34 0 -93 -9 -137 -32c-92 -48 -104 -79 -104 -88z" />
    <glyph glyph-name="partialdiff" unicode="&#x2202;" horiz-adv-x="464" 
d="M202 753c122 0 221 -121 221 -357c0 -257 -81 -401 -225 -401c-102 0 -166 104 -166 223c0 150 75 254 173 254c40 0 79 -21 99 -56h1v18c0 124 -53 212 -120 212c-35 0 -67 -14 -99 -46l-30 102c45 36 91 51 146 51zM151 210c0 -61 23 -105 59 -105c43 0 77 78 86 202
c-11 36 -37 60 -68 60c-45 0 -77 -74 -77 -157z" />
    <glyph glyph-name="Delta" unicode="&#x2206;" horiz-adv-x="512" 
d="M189 674h142l158 -597v-77h-467v75zM258 515h-2c-10 -45 -28 -123 -44 -176l-70 -236h225l-68 236c-5 19 -34 144 -41 176z" />
    <glyph glyph-name="product" unicode="&#x220f;" horiz-adv-x="580" 
d="M23 663h534v-119h-73v-636h-122v636h-144v-636h-122v636h-73v119z" />
    <glyph glyph-name="summation" unicode="&#x2211;" horiz-adv-x="437" 
d="M25 663h385v-107h-229v-3l155 -238l-177 -282v-3h263v-122h-401v87l181 294l-177 282v92z" />
    <glyph glyph-name="minus" unicode="&#x2212;" horiz-adv-x="426" 
d="M32 386h362v-106h-362v106z" />
    <glyph glyph-name="uni2215" unicode="&#x2215;" horiz-adv-x="136" 
d="M165 667h75l-269 -667h-75z" />
    <glyph glyph-name="uni2219" unicode="&#x2219;" horiz-adv-x="222" 
d="M47 405h127v-146h-127v146z" />
    <glyph glyph-name="radical" unicode="&#x221a;" horiz-adv-x="484" 
d="M404 801h81l-175 -925h-95l-109 405l-60 -24l-18 74l151 61l67 -265l16 -93l1 -1c4 37 9 81 15 113z" />
    <glyph glyph-name="infinity" unicode="&#x221e;" horiz-adv-x="669" 
d="M185 421c59 0 103 -26 152 -93c57 69 99 93 155 93c77 0 136 -59 136 -148c0 -95 -64 -156 -141 -156c-75 0 -118 50 -151 96c-53 -71 -101 -96 -157 -96c-78 0 -139 65 -139 151c0 91 64 153 145 153zM108 268c0 -48 36 -83 77 -83c37 0 60 12 114 79l-28 38
c-23 32 -52 53 -86 53c-47 0 -77 -34 -77 -87zM372 271c44 -60 72 -86 116 -86c42 0 72 41 72 82c0 49 -29 88 -76 88c-23 0 -54 -7 -112 -84z" />
    <glyph glyph-name="integral" unicode="&#x222b;" horiz-adv-x="357" 
d="M279 822c17 0 35 -4 46 -8l-11 -91c-8 3 -16 6 -27 6c-18 0 -32 -10 -43 -31s-16 -71 -16 -152c0 -98 12 -336 12 -468c0 -204 -70 -245 -149 -245c-27 0 -48 7 -63 14l15 94c17 -7 23 -8 32 -8c41 0 51 42 51 163c0 114 -12 348 -12 474c0 214 80 252 165 252z" />
    <glyph glyph-name="approxequal" unicode="&#x2248;" horiz-adv-x="436" 
d="M147 421c67 0 109 -62 150 -62c21 0 39 11 67 62l42 -36c-25 -60 -68 -96 -112 -96c-75 0 -98 63 -153 63c-21 0 -41 -10 -69 -62l-43 36c28 63 72 95 118 95zM147 255c67 0 109 -62 150 -62c21 0 39 11 67 62l42 -36c-25 -60 -68 -96 -112 -96c-75 0 -98 63 -153 63
c-21 0 -41 -10 -69 -62l-43 36c28 63 72 95 118 95z" />
    <glyph glyph-name="notequal" unicode="&#x2260;" horiz-adv-x="436" 
d="M235 398l37 92l55 -19l-30 -73h100v-72h-124l-46 -115h170v-72h-194l-37 -92l-55 19l30 73h-103v72h127l46 115h-173v72h197z" />
    <glyph glyph-name="lessequal" unicode="&#x2264;" horiz-adv-x="436" 
d="M394 566v-86l-286 -150v-2l287 -150v-86l-352 198v78zM40 60h359v-73h-359v73z" />
    <glyph glyph-name="greaterequal" unicode="&#x2265;" horiz-adv-x="436" 
d="M46 480v86l351 -198v-78l-351 -198v86l286 150v2zM41 60h358v-73h-358v73z" />
    <glyph glyph-name="lozenge" unicode="&#x25ca;" horiz-adv-x="482" 
d="M195 707h101l146 -376l-155 -375h-100l-146 375zM245 598h-3c-7 -32 -12 -55 -17 -69l-76 -195l75 -210c4 -12 11 -48 13 -61h5c1 8 11 53 14 62l77 203l-71 198c-3 9 -12 44 -17 72z" />
    <glyph glyph-name="grave.cap" horiz-adv-x="460" 
d="M297 708l-191 69l41 85l179 -97z" />
    <glyph glyph-name="acute.cap" horiz-adv-x="460" 
d="M354 778l-191 -70l-29 57l180 97z" />
    <glyph glyph-name="circumflex.cap" horiz-adv-x="460" 
d="M403 709h-93l-78 51l-80 -51h-93l173 153z" />
    <glyph glyph-name="caron.cap" horiz-adv-x="460" 
d="M395 855l-171 -153l-173 153h93l80 -51l78 51h93z" />
    <glyph glyph-name="tilde.cap" horiz-adv-x="460" 
d="M338 837l39 -34c-23 -53 -56 -85 -92 -85c-20 0 -42 10 -58 22s-42 28 -57 28c-17 0 -27 -14 -40 -34l-35 32c23 51 60 80 87 80c14 0 34 -8 59 -24s45 -24 58 -24c12 0 22 6 39 39z" />
    <glyph glyph-name="dieresis.cap" horiz-adv-x="460" 
d="M156 720c-28 0 -55 22 -55 55c0 32 24 56 55 56s56 -24 56 -55c0 -33 -25 -56 -56 -56zM300 720c-29 0 -56 22 -56 55c0 32 25 56 56 56s55 -24 55 -55c0 -33 -26 -56 -55 -56z" />
    <glyph glyph-name="macron.cap" horiz-adv-x="460" 
d="M342 736h-212v69h212v-69z" />
    <glyph glyph-name="breve.cap" horiz-adv-x="460" 
d="M296 828h61c-19 -72 -61 -107 -126 -107c-67 0 -110 35 -127 107h61c12 -25 29 -39 66 -39c29 0 52 8 65 39z" />
    <glyph glyph-name="ring.cap" horiz-adv-x="460" 
d="M230 690c-53 0 -96 42 -96 95c0 54 42 96 96 96s96 -41 96 -95c0 -53 -43 -96 -96 -96zM266 785c0 19 -17 36 -36 36c-20 0 -36 -16 -36 -36c0 -19 17 -35 36 -35c20 0 36 15 36 35z" />
    <glyph glyph-name="hungarumlaut.cap" horiz-adv-x="460" 
d="M269 803l-111 -94l-44 38l103 115zM411 803l-111 -94l-44 38l103 115z" />
    <glyph glyph-name="dotaccent.cap" horiz-adv-x="460" 
d="M230 715c-31 0 -59 24 -59 59c0 33 26 59 59 59s59 -26 59 -59c0 -35 -28 -59 -59 -59z" />
    <glyph glyph-name="caron.alt" horiz-adv-x="460" 
d="M273 509h-57l20 205h88c-23 -92 -38 -146 -51 -205z" />
    <glyph glyph-name="commaaccent" horiz-adv-x="460" 
d="M240 -222h-53l36 73h-42v97h99v-93z" />
    <glyph glyph-name="commaaccent.alt" horiz-adv-x="460" 
d="M263 551h-95v85l38 78h46l-30 -75h41v-88z" />
    <glyph glyph-name="uniF8FF" unicode="&#xf8ff;" horiz-adv-x="512" 
d="M512 0h-512v718h512v-718zM462 50v617h-412v-617h412zM271 234h-46l-2 19c0 41 6 70 19 89s31 40 54 63c24 23 36 46 36 69c0 48 -35 85 -76 85s-74 -27 -82 -95l-50 8c9 95 63 137 135 137c71 0 124 -52 124 -131c0 -45 -15 -76 -64 -121c-24 -22 -38 -39 -42 -52
c-4 -12 -6 -36 -6 -71zM278 117h-56v67h56v-67z" />
    </font>
</defs>
</svg>
